<svg width="1354" height="656" viewBox="0 0 1354 656" xmlns="http://www.w3.org/2000/svg"><g fill="none" fill-rule="nonzero"><path fill="#343333" d="M203.984 306.222l23.33 62.027 22.991-8.62 17.751 7.606 9.298-17.915 94.841-35.831-23.33-61.858z"/><path fill="#FFF" d="M239.148 326.165l11.834-4.394 2.197 5.577-11.834 4.394 4.903 12.845-6.424 2.367-11.834-31.268 21.639-8.112 2.198 5.746-15.384 5.747zM279.045 311.123l2.197 5.577-12.341 4.564 2.705 7.098 15.722-5.915 2.198 5.577-22.146 8.282-11.834-31.267 22.146-8.282 2.198 5.746-15.722 5.916 2.705 7.098zM307.784 300.306l2.198 5.578-12.341 4.563 2.705 7.098 15.722-5.915 2.198 5.577-22.147 8.282-11.833-31.267 22.146-8.282 2.198 5.747-15.723 5.915 2.705 7.099zM345.653 289.152c3.888 10.309-1.184 18.253-9.975 21.633l-10.988 4.056-11.834-31.267 10.989-4.056c8.79-3.211 17.919-.507 21.808 9.634zm-24.175-2.198l7.438 19.944 4.565-1.69c5.071-1.86 8.453-6.254 5.748-13.521-2.536-6.93-8.115-8.282-13.187-6.423l-4.564 1.69z"/><path fill="#343333" d="M52.172 458.163L40 517.486l21.977 4.395 9.974 14.535 15.892-9.296 90.783 18.591 12.172-59.323z"/><path fill="#FFF" d="M69.585 490.614l11.327 2.366-1.184 5.408-11.327-2.366-2.535 12.338-6.087-1.183 6.086-29.915 20.794 4.225-1.183 5.408-14.708-3.042zM107.622 498.388l-1.183 5.408-11.834-2.366-1.352 6.761 15.046 3.042-1.184 5.408-21.132-4.394 6.086-29.915 21.132 4.394-1.183 5.409-15.046-3.043-1.353 6.93zM135.179 504.134l-1.184 5.409-11.834-2.366-1.352 6.76 15.046 3.042-1.184 5.409-20.963-4.395 6.086-29.915 21.132 4.395-1.183 5.408-15.046-3.042-1.352 6.929zM170.004 513.937c-2.029 9.803-9.974 13.521-18.258 11.831l-10.482-2.197 6.086-29.915 10.482 2.197c8.284 1.69 14.201 8.281 12.172 18.084zm-17.751-13.521l-3.888 19.099 4.395.845c4.734 1.014 9.636-.676 10.989-7.775 1.352-6.591-2.198-10.31-7.101-11.324l-4.395-.845z"/><path fill="#343333" d="M668.211 75.52l-12.172 59.324 21.977 4.563 9.975 14.366 15.891-9.127 90.783 18.423 12.172-59.323z"/><path fill="#FFF" d="M685.624 108.14l11.327 2.366-1.015 5.24-11.327-2.367-2.535 12.338-6.086-1.183 6.086-29.915 20.793 4.225-1.183 5.409-14.708-3.043zM723.661 115.915l-1.183 5.408-11.834-2.366-1.352 6.76 15.046 3.042-1.184 5.409-21.132-4.395 6.086-29.915 21.132 4.395-1.183 5.408-15.046-3.042-1.353 6.93zM751.217 121.492l-1.183 5.408-11.834-2.366-1.352 6.76 15.046 3.043-1.184 5.408-20.963-4.225 6.086-29.915 21.132 4.394-1.183 5.408-15.046-3.042-1.352 6.93zM786.043 131.294c-2.029 9.803-9.974 13.521-18.258 11.831l-10.482-2.197 6.086-29.915 10.482 2.197c8.284 1.86 14.201 8.282 12.172 18.085zm-17.751-13.351l-3.888 19.098 4.395.845c4.734 1.014 9.636-.676 10.989-7.775 1.352-6.591-2.198-10.31-7.1-11.323l-4.396-.845z"/><path fill="#343333" d="M1051.97 317.207l-12.174 59.324 21.974 4.563 9.98 14.366 15.89-9.127 90.78 18.423 12.17-59.324z"/><path fill="#FFF" d="M1069.38 349.827l11.33 2.366-1.02 5.239-11.32-2.366-2.54 12.338-6.09-1.183 6.09-29.915 20.79 4.225-1.18 5.408-14.71-3.042zM1107.42 357.601l-1.19 5.409-11.83-2.367-1.35 6.761 15.04 3.042-1.18 5.409-21.13-4.395 6.08-29.915 21.14 4.394-1.19 5.409-15.04-3.042-1.36 6.929zM1134.97 363.179l-1.18 5.408-11.83-2.366-1.36 6.76 15.05 3.043-1.18 5.408-21.14-4.394 6.09-29.915 21.13 4.394-1.18 5.408-15.05-3.042-1.35 6.929zM1169.8 372.981c-2.03 9.803-9.97 13.521-18.26 11.831l-10.48-2.197 6.09-29.915 10.48 2.197c8.28 1.859 14.2 8.282 12.17 18.084zm-17.75-13.352l-3.89 19.099 4.4.845c4.73 1.014 9.63-.676 10.98-7.775 1.36-6.591-2.19-10.309-7.1-11.324l-4.39-.845z"/><path fill="#343333" d="M855.863 273.264l18.596 50.535 18.765-6.761 14.37 6.254 7.777-14.535 77.596-28.563-18.765-50.704z"/><path fill="#FFF" d="M884.433 289.659l9.637-3.55 1.69 4.564-9.636 3.549 3.888 10.479-5.24 1.859-9.468-25.521 17.751-6.592 1.691 4.733-12.51 4.563zM916.892 277.659l1.691 4.563-9.975 3.718 2.198 5.747 12.848-4.733 1.691 4.564-18.089 6.76-9.467-25.521 18.089-6.76 1.69 4.732-12.848 4.733 2.198 5.915zM940.391 269.039l1.69 4.563-9.974 3.719 2.198 5.746 12.848-4.732 1.691 4.563-18.089 6.761-9.467-25.521 18.089-6.761 1.69 4.733-12.848 4.732 2.198 5.915zM971.497 260.081c3.043 8.451-1.183 14.874-8.284 17.578l-8.96 3.38-9.467-25.521 8.96-3.38c7.101-2.535 14.708-.338 17.751 7.943zm-19.779-1.859l6.086 16.225 3.719-1.352c4.057-1.521 6.931-5.07 4.734-10.985-2.029-5.578-6.594-6.761-10.82-5.24l-3.719 1.352z"/><path fill="#343333" d="M667.535 409.826l-15.384 33.126 12.172 5.578 3.719 9.971 10.651-3.211 50.547 23.662 15.384-33.127z"/><path fill="#FFF" d="M673.114 431.459l6.255 2.874-1.353 3.042-6.255-2.873-3.212 6.76-3.381-1.521 7.777-16.563 11.496 5.408-1.353 3.042-8.115-3.887zM694.415 441.262l-1.353 3.042-6.593-3.042-1.69 3.718 8.453 3.888-1.353 3.042-11.834-5.578 7.777-16.563 11.834 5.578-1.353 3.042-8.453-3.887-1.859 3.887zM709.63 448.53l-1.353 3.042-6.593-3.042-1.69 3.718 8.453 3.887-1.353 3.042-11.834-5.577 7.777-16.563 11.834 5.577-1.353 3.042-8.453-3.887-1.859 3.887zM728.564 459.177c-2.536 5.409-7.776 6.592-12.341 4.395l-5.748-2.705 7.777-16.563 5.748 2.705c4.733 2.028 7.269 6.591 4.564 12.168zm-8.283-10.478l-4.903 10.647 2.367 1.183c2.705 1.184 5.748 1.015 7.607-2.873 1.691-3.718.169-6.422-2.536-7.605l-2.535-1.352z"/><path fill="#343333" d="M430.012 131.632l.676 23.831 8.791-.169 5.24 4.563 5.241-4.901 36.516-1.014-.676-24z"/><path fill="#FFF" d="M439.648 142.449l4.564-.169v2.197l-4.564.169.169 4.902h-2.536l-.338-12 8.284-.17v2.198l-5.917.169zM455.032 142.111v2.197l-4.734.169v2.705l6.086-.169v2.197l-8.453.169-.338-12 8.453-.17v2.198l-6.086.169v2.704zM466.02 141.773v2.197l-4.733.169v2.705l6.086-.169v2.197l-8.453.169-.338-12 8.453-.17v2.198l-6.086.169v2.704zM480.221 142.449c.169 3.888-2.536 6.085-5.917 6.254l-4.226.169-.338-12 4.226-.17c3.381-.168 6.255 1.86 6.255 5.747zm-7.946-3.549l.17 7.606h1.69c1.86 0 3.55-1.184 3.55-3.888 0-2.704-1.859-3.718-3.719-3.718h-1.691z"/><path fill="#343333" d="M1250.78 274.278l2.87 22.986 8.62-1.014 5.41 4.056 4.74-5.408 35.33-4.563-3.04-22.986z"/><path fill="#FFF" d="M1261.09 283.912l4.4-.507.33 2.028-4.39.507.67 4.733-2.36.338-1.52-11.662 8.11-1.014.34 2.197-5.75.676zM1275.97 282.053l.33 2.028-4.56.507.34 2.704 5.92-.676.33 2.028-8.28 1.015-1.52-11.662 8.28-1.014.34 2.197-5.92.676.34 2.704zM1286.62 280.701l.34 2.028-4.57.507.34 2.704 5.92-.676.33 2.028-8.28 1.014-1.52-11.661 8.28-1.014.34 2.197-5.92.676.34 2.704zM1300.65 279.856c.51 3.887-1.86 6.084-5.24 6.591l-4.06.507-1.52-11.661 4.06-.507c3.21-.338 6.25 1.352 6.76 5.07zm-8.12-2.704l1.02 7.436 1.69-.169c1.86-.169 3.38-1.521 3.04-4.225-.34-2.535-2.03-3.549-4.06-3.211l-1.69.169z"/><path fill="#343333" d="M239.42 618.35l21.547 33.452 12.392-8.014 11.446 2.301 3.304-11.684 51.15-33.095-21.545-33.452z"/><path fill="#FFF" d="M262.68 625.552l6.32-4.15 2.009 3.003-6.319 4.15 4.414 6.94-3.47 2.207-10.839-16.88 11.68-7.529 2.01 3.003-8.21 5.32zM284.15 611.665l2.01 3.003-6.631 4.283 2.562 3.871 8.52-5.453 2.01 3.003-11.991 7.66-10.84-16.88 11.992-7.661 2.01 3.003-8.522 5.452 2.561 3.87zM299.613 601.797l2.009 3.003-6.63 4.283 2.561 3.87 8.52-5.453 2.01 3.004-11.991 7.66-10.84-16.88 11.992-7.662 2.01 3.004-8.521 5.452 2.56 3.87zM320.475 590.371c3.664 5.605 1.515 10.925-3.224 14.038l-5.918 3.797-10.84-16.881 5.919-3.798c4.895-3.179 10.619-2.671 14.063 2.844zm-14.502 1.749l6.976 10.81 2.448-1.59c2.758-1.722 4.234-4.735 1.607-8.76-2.34-3.781-5.825-3.772-8.583-2.05l-2.448 1.59z"/><path fill="#343333" d="M1014.944 135.689l-14.031 34.309 12.679 5.24 4.395 9.971 10.651-3.718 52.742 21.633 14.2-34.309z"/><path fill="#FFF" d="M1021.876 157.322l6.593 2.704-1.352 3.212-6.594-2.704-2.874 7.098-3.55-1.521 7.101-17.408 12.003 4.901-1.353 3.211-8.453-3.549zM1043.85 166.449l-1.35 3.211-6.762-2.873-1.69 3.887 8.792 3.549-1.35 3.212-12.345-5.071 7.101-17.408 12.344 5.07-1.36 3.212-8.787-3.55-1.69 4.057zM1059.91 173.04l-1.35 3.212-6.76-2.874-1.69 3.888 8.79 3.549-1.35 3.211-12.34-5.07 7.1-17.408 12.34 5.07-1.36 3.211-8.79-3.549-1.69 4.056zM1079.69 183.012c-2.36 5.746-7.6 7.099-12.51 5.07l-6.08-2.535 7.1-17.408 6.08 2.535c5.07 2.028 7.78 6.592 5.41 12.338zm-8.96-10.141l-4.56 10.986 2.53 1.014c2.88 1.183 5.92.676 7.61-3.38 1.52-3.887-.17-6.591-3.04-7.775l-2.54-.845z"/><path fill="#343333" d="M46.593 205.66l6.593 43.605 16.06-2.366 10.482 7.436 8.622-10.31 66.777-9.802-6.593-43.774z"/><path fill="#FFF" d="M66.71 223.575l8.285-1.183.676 3.887-8.284 1.183 1.353 8.958-4.565.676-3.212-21.972 15.215-2.197.676 4.056-10.82 1.691zM94.774 219.519l.676 3.887-8.622 1.352.677 5.07 11.157-1.69.677 3.887-15.554 2.367-3.212-21.972 15.553-2.366.677 4.056-11.158 1.69.676 5.071zM114.892 216.476l.676 3.888-8.622 1.352.676 5.07 11.158-1.69.676 3.887-15.553 2.366-3.212-21.971 15.384-2.366.676 4.056-11.157 1.69.676 5.071zM141.264 214.617c1.015 7.268-3.38 11.831-9.636 12.676l-7.776 1.183-3.213-21.971 7.777-1.183c6.086-1.014 11.665 2.028 12.848 9.295zm-15.553-4.901l2.029 14.028 3.212-.507c3.55-.507 6.424-2.873 5.579-7.944-.677-4.901-4.058-6.591-7.777-5.915l-3.043.338z"/><path fill="#343333" d="M1041.15 559.063l-8.793 35.662 13.183 3.38 5.58 8.958 9.98-5.071 54.77 13.521 8.79-35.83z"/><path fill="#FFF" d="M1050.95 579.345l6.77 1.69-.85 3.211-6.76-1.69-1.86 7.436-3.72-.845 4.39-18.084 12.51 3.042-.84 3.212-8.79-2.198zM1073.94 584.922l-.84 3.211-7.1-1.69-1.01 4.056 9.12 2.198-.84 3.211-12.68-3.211 4.4-18.085 12.67 3.212-.84 3.211-9.13-2.197-1.01 4.056zM1090.51 589.147l-.84 3.212-7.1-1.691-1.02 4.057 9.13 2.197-.84 3.211-12.68-3.211 4.39-18.084 12.68 3.211-.84 3.211-9.13-2.197-1.02 4.056zM1111.31 595.908c-1.53 5.915-6.43 7.943-11.5 6.76l-6.25-1.521 4.39-18.084 6.26 1.521c5.24 1.352 8.62 5.408 7.1 11.324zm-10.32-8.62l-2.87 11.493 2.7.676c2.88.676 5.92-.169 6.94-4.394 1.01-3.887-1.19-6.423-4.06-7.099l-2.71-.676z"/><path fill="#343333" d="M1250.27 140.083l32.12 30.253 11.16-12 12.85-.676.33-13.352 46.16-49.182-32.12-30.253z"/><path fill="#FFF" d="M1277.15 141.604l5.75-6.084 2.87 2.704-5.75 6.084 6.6 6.254-3.05 3.38-16.23-15.211 10.66-11.324 2.87 2.704-7.44 7.944zM1296.59 120.985l2.88 2.704-5.92 6.422 3.72 3.55 7.6-8.113 2.88 2.704-10.82 11.493-16.23-15.211 10.82-11.493 2.87 2.704-7.6 8.113 3.72 3.55zM1310.45 106.112l2.88 2.704-5.92 6.422 3.72 3.55 7.61-8.113 2.87 2.704-10.82 11.493-16.23-15.211 10.82-11.493 2.88 2.704-7.61 8.113 3.72 3.55zM1329.9 88.365c5.41 5.07 4.56 11.324.33 15.888l-5.41 5.746-16.23-15.211 5.41-5.746c4.4-4.564 10.65-5.747 15.9-.677zm-15.05 5.747l10.31 9.634 2.2-2.367c2.54-2.535 3.21-6.253-.51-9.802-3.55-3.38-7.27-2.535-9.8.169l-2.2 2.366z"/><path fill="#343333" d="M832.195 528.134l15.553 41.239 15.215-5.746 11.834 5.07 6.255-11.831 63.227-23.662-15.553-41.407z"/><path fill="#FFF" d="M855.525 541.486l7.946-3.042 1.352 3.718-7.946 3.042 3.212 8.62-4.226 1.521-7.776-20.788 14.538-5.409 1.353 3.718-10.144 3.888zM882.067 531.514l1.352 3.719-8.114 3.042 1.859 4.732 10.482-3.887 1.352 3.718-14.708 5.578-7.776-20.789 14.708-5.577 1.352 3.718-10.481 3.887 1.859 4.733zM901.339 524.247l1.352 3.718-8.114 3.042 1.859 4.733 10.482-3.888 1.352 3.719-14.708 5.577-7.776-20.788 14.708-5.578 1.352 3.718-10.481 3.888 1.859 4.732zM926.529 516.979c2.535 6.93-.846 12.169-6.763 14.366l-7.269 2.705-7.777-20.789 7.27-2.704c5.917-2.197 12.003-.507 14.539 6.422zm-16.061-1.521l5.072 13.352 3.043-1.183c3.381-1.183 5.748-4.225 3.888-8.958-1.69-4.563-5.41-5.577-8.791-4.225l-3.212 1.014z"/><path fill="#343333" d="M109.99 38L96.633 91.746l19.78 4.901 8.621 13.69 15.046-7.775 82.161 20.45 13.355-53.745z"/><path fill="#FFF" d="M124.697 68.422l10.312 2.535-1.183 4.902-10.312-2.535-2.705 11.154-5.58-1.352 6.763-27.042 18.765 4.733-1.183 4.9-13.356-3.38zM159.184 77.042l-1.183 4.901-10.651-2.704-1.521 6.253 13.694 3.38-1.353 4.902-19.272-4.733L145.66 62l19.272 4.732-1.183 4.901-13.694-3.38-1.521 6.254zM184.036 83.295l-1.184 4.901-10.65-2.704-1.522 6.254 13.694 3.38-1.184 4.901-19.272-4.732 6.762-27.042 19.273 4.732-1.184 4.902-13.693-3.38-1.522 6.253zM215.48 93.605c-2.198 8.957-9.636 12-17.244 10.14l-9.467-2.366 6.762-27.041 9.468 2.366c7.776 1.859 12.679 7.943 10.481 16.9zM199.927 80.59l-4.227 17.24 3.889 1.013c4.395 1.014 8.791-.169 10.312-6.591 1.522-5.916-1.69-9.634-6.086-10.648l-3.888-1.014z"/><path fill="#343333" d="M498.986 236.758l-16.567 49.689 18.258 6.085 7.1 13.69 14.708-6.254 76.244 25.352 16.568-49.689z"/><path fill="#FFF" d="M510.651 266.504l9.467 3.211-1.521 4.563-9.467-3.211-3.381 10.31-5.072-1.69 8.453-25.014 17.413 5.916-1.522 4.563-12.341-4.056zM542.603 277.321l-1.522 4.563-9.805-3.38-1.86 5.746 12.68 4.225-1.522 4.564-17.751-5.916 8.453-25.013 17.582 5.746-1.522 4.563-12.679-4.225-1.859 5.746zM565.594 284.926l-1.521 4.564-9.805-3.381-1.86 5.747 12.679 4.225-1.521 4.563-17.751-5.915 8.453-25.014 17.751 5.916-1.522 4.563-12.679-4.225-1.86 5.746zM594.503 297.095c-2.705 8.282-9.974 10.648-16.906 8.282l-8.791-2.874 8.453-25.013 8.791 2.873c6.931 2.366 11.327 8.619 8.453 16.732zm-13.694-13.352l-5.409 16.056 3.719 1.183c4.057 1.352 8.284.507 10.312-5.408 1.86-5.577-.845-9.127-4.902-10.479l-3.72-1.352z"/><path fill="#343333" d="M1205.98 471.853l-2.88 52.394 19.44 1.183 10.32 11.155 12.51-9.972 80.13 4.394 3.04-52.224z"/><path fill="#FFF" d="M1225.08 497.543l9.97.507-.33 4.732-9.98-.507-.67 10.817-5.41-.338 1.52-26.366 18.43 1.183-.34 4.733-13.02-.676zM1258.72 499.571l-.34 4.732-10.31-.507-.34 6.085 13.36.676-.34 4.732-18.76-1.014 1.52-26.366 18.76 1.014-.34 4.733-13.35-.676-.34 6.084zM1283.07 500.923l-.34 4.733-10.31-.507-.34 6.084 13.35.676-.33 4.732-18.77-1.014 1.52-26.366 18.77 1.015-.34 4.732-13.36-.676-.33 6.084zM1314.17 504.979c-.5 8.62-6.76 12.845-14.2 12.507l-9.3-.507 1.53-26.366 9.29.508c7.27.338 13.19 5.239 12.68 13.858zm-16.9-9.464l-1.02 16.901 3.89.169c4.23.169 8.12-1.859 8.45-7.944.34-5.746-3.21-8.619-7.6-8.788l-3.72-.338z"/><path fill="#343333" d="M476.502 584.584l13.355 64.056 23.668-4.902 16.229 10.141 11.834-16.056 98.222-20.282-13.356-64.224z"/><path fill="#FFF" d="M507.777 609.26l12.341-2.535 1.184 5.915-12.341 2.535 2.704 13.352-6.593 1.352-6.762-32.281 22.484-4.732 1.184 5.915-15.891 3.38zM549.027 600.809l1.183 5.916-12.679 2.704 1.522 7.436 16.229-3.38 1.183 5.916-22.991 4.732-6.763-32.281 22.992-4.733 1.183 5.916-16.229 3.38 1.522 7.436zM578.781 594.725l1.183 5.915-12.679 2.704 1.521 7.437 16.23-3.38 1.183 5.915-22.992 4.732-6.762-32.281 22.992-4.732 1.183 5.915-16.229 3.38 1.521 7.437zM617.664 589.654c2.197 10.648-4.058 17.747-13.187 19.606l-11.327 2.366-6.762-32.281 11.327-2.366c9.129-2.029 17.751 2.028 19.949 12.675zm-23.33-5.915l4.226 20.619 4.734-1.014c5.241-1.014 9.298-4.732 7.607-12.337-1.521-7.099-6.762-9.296-12.003-8.282l-4.564 1.014z"/></g></svg>