<svg width="134" height="42" viewBox="0 0 200 62" xmlns="http://www.w3.org/2000/svg">
    <g fill="#1A171B" fill-rule="evenodd"><path d="M20.063 12.263a1.645 1.645 0 0 0-.155-.691c-.103-.224-.224-.331-.365-.331h-2.205c-.14 0-.258.107-.365.33a1.645 1.645 0 0 0-.155.692v36.409c-.005.217.05.432.155.622.107.18.224.268.365.268h2.17a.418.418 0 0 0 .38-.268c.095-.193.142-.407.136-.622v-6.813l2.58-3.674 5.693 11.022c.06.073.13.14.204.2.058.056.13.095.21.111h2.92c.228 0 .388-.165.486-.486.09-.326.053-.674-.102-.974l-6.779-12.997 5.966-8.76a.837.837 0 0 0 .224-.447 1.766 1.766 0 0 0 0-.53 1.08 1.08 0 0 0-.175-.487.409.409 0 0 0-.346-.2h-2.69l-8.19 12.297.038-24.671z" fill-rule="nonzero"/><path d="M32.273 19.917h3.187a.76.76 0 0 1 .769.72v3.504a.76.76 0 0 1-.789.72h-3.187a.754.754 0 0 1-.783-.72v-3.504a.754.754 0 0 1 .783-.72h.02z"/><path fill-rule="nonzero" d="M54.414 55.217h.895l-.448-2.322zM28.988 53.62a.667.667 0 0 0-.214-.579 1.168 1.168 0 0 0-.682-.15h-.35v1.542h.409a.73.73 0 0 0 .837-.813zM38.375 52.827c-.487 0-.73.59-.72 1.786 0 1.333.228 2 .72 1.995.491-.005.73-.623.72-1.888-.01-1.265-.234-1.893-.72-1.893zM45.401 52.88h-.243v3.63h.239a.89.89 0 0 0 .87-.432 3.09 3.09 0 0 0 .224-1.402c.03-1.211-.335-1.815-1.09-1.795z"/><path d="M77.105 8.263C69.968 3.073 59.77.477 46.51.477H0v60.53h42.195c7.299 0 13.28-.37 17.946-1.114 4.667-.745 8.589-1.947 11.713-3.577a28.91 28.91 0 0 0 11.762-10.705 28.53 28.53 0 0 0 4.194-15.246c0-9.538-3.568-16.905-10.705-22.102zm-64.526 24.39a.76.76 0 0 1-.788.72H8.603a.76.76 0 0 1-.788-.72v-3.505a.76.76 0 0 1 .788-.72h3.188a.76.76 0 0 1 .788.72v3.504zm2.146 24.281h-.798v-4.428h.798c.973 0 1.447.735 1.421 2.204.015 1.494-.457 2.239-1.42 2.224zm2.599 0h-.438v-4.428h.438v4.428zm1.742.088c-.691 0-1.056-.428-1.085-1.256h.413c.026.571.255.854.686.847a.564.564 0 0 0 .463-.2.803.803 0 0 0 .17-.535.93.93 0 0 0-.22-.613 3.752 3.752 0 0 0-.612-.545 2.964 2.964 0 0 1-.613-.584 1.09 1.09 0 0 1-.22-.715c-.01-.266.087-.525.268-.72a.93.93 0 0 1 .682-.283c.657 0 1.002.41 1.046 1.198h-.404c-.039-.545-.243-.818-.628-.818-.384 0-.57.214-.579.618 0 .195.077.382.214.52.117.123.246.234.385.332l.418.335c.414.283.666.75.677 1.251-.02.76-.375 1.148-1.061 1.168zm3.581-4.141h-.866v4.053h-.433v-4.053h-.857v-.375h2.156v.375zm2.224 4.053l-.647-2.107h-.648v2.093h-.437V52.49h.783c.92 0 1.382.385 1.382 1.164.047.467-.233.905-.676 1.06l.7 2.205-.457.014zm1.606 0h-.438v-4.428h.457l-.02 4.428zm1.669 0h-.842v-4.428h.784c.2-.007.4.008.598.044.188.036.36.134.487.277.18.212.271.486.253.764a.973.973 0 0 1-.608 1.003c.461.161.753.617.705 1.104-.02.828-.472 1.241-1.377 1.236zm4.19-1.567c0 .29-.01.537-.03.745a1.1 1.1 0 0 1-.194.52 1.148 1.148 0 0 1-1.698 0 1.153 1.153 0 0 1-.195-.52 5.596 5.596 0 0 1-.034-.74v-2.88h.438v2.875c-.02.328.014.657.102.974a.487.487 0 0 0 .535.32.487.487 0 0 0 .545-.32c.081-.318.112-.646.093-.974V52.53h.438v2.837zm3.05.195c0 .973-.384 1.436-1.118 1.46-.808 0-1.217-.75-1.217-2.243 0-1.58.41-2.369 1.231-2.365.691 0 1.046.486 1.061 1.391h-.423c-.04-.661-.253-.973-.643-.973-.53 0-.788.638-.768 1.947.019 1.309.262 1.888.836 1.883.419 0 .633-.355.648-1.046v-.088h.394v.034zm1.1 1.358h-.432V52.49h.433v4.429zm1.87.087c-.783 0-1.175-.769-1.178-2.306 0-1.523.394-2.292 1.177-2.297.784-.005 1.183.774 1.188 2.297.004 1.523-.395 2.316-1.168 2.32l-.02-.014zm-.37-4.934l.603-1.041h.56l-.813 1.041h-.35zm4.51 4.866h-.428l-1.085-3.066c-.131-.364-.238-.71-.326-1.021v4.087h-.384v-4.428h.642l.88 2.51c.127.361.244.726.351 1.106 0-.38-.039-.706-.034-.974v-2.647h.384v4.433zm2.993 0h-.798v-4.428h.798c.973 0 1.447.735 1.421 2.204.024 1.49-.438 2.234-1.401 2.22l-.02.004zm4.131 0h-1.98v-4.428h1.946v.423h-1.489v1.533h1.09v.404h-1.09v1.679h1.543l-.02.39zm2.59-2.029h-.278v2.03h-.438v-4.43h.715c.92 0 1.382.4 1.382 1.203s-.443 1.197-1.362 1.192l-.02.005zm3.406 2.03l-.249-1.305h-1.08l-.248 1.304h-.428l.924-4.428h.609l.934 4.428h-.462zm1.712-2.03h-.277v2.03h-.384v-4.43h.715c.92 0 1.382.4 1.382 1.203s-.482 1.197-1.401 1.192l-.035.005zm3.986 2.03h-1.98v-4.43h1.946v.424h-1.494v1.533h1.095v.404h-1.095v1.679h1.547l-.02.39zm2.39 0h-1.792v-4.43h.443v4.01h1.348v.42zm-.565-11.835c-4.834 3.01-13.034 4.515-24.599 4.515H16.827v-.705a.905.905 0 0 1-.14.457.433.433 0 0 1-.356.229H14.18a.433.433 0 0 1-.35-.229.937.937 0 0 1-.152-.535V29.26c.001-.205.053-.408.152-.588.102-.19.219-.283.35-.283h2.15c.137 0 .254.093.356.283.08.15.129.316.141.486V11.314h29.8c7.839 0 13.766 1.594 17.782 4.783 4.014 3.188 6.02 7.86 6.02 14.054 0 6.939-2.42 11.922-7.256 14.949l-.034.005z" fill-rule="nonzero"/><path d="M57.46 52.934h-.375v1.626h.375c.579 0 .87-.268.87-.808s-.291-.818-.87-.818zM52.326 52.934h-.375v1.626h.375c.58 0 .871-.268.871-.808s-.292-.818-.871-.818zM28.15 54.813h-.408v1.717h.443c.598 0 .89-.272.89-.846 0-.575-.311-.876-.924-.871zM23.97 52.89h-.393v1.553h.374c.59 0 .886-.258.886-.774s-.287-.778-.866-.778zM14.613 52.88h-.243v3.63h.238a.886.886 0 0 0 .871-.432 3.08 3.08 0 0 0 .229-1.402c.024-1.211-.336-1.815-1.095-1.795zM16.837 29.26v-.078V48.832 29.26zM99.684 39.27v-2.487l-1.168.648.229-.093c.194-.073.311-.053.311.375v1.513c0 .487-.078.536-.535.536v.107h1.708v-.107c-.506 0-.545-.073-.545-.492z" fill-rule="nonzero"/><path d="M101.25 38.092a.642.642 0 0 0 .487-.598c0-.487-.404-.672-.793-.672a.774.774 0 0 0-.837.852.973.973 0 0 0 .487.769.7.7 0 0 0-.56.72c0 .178.062.35.175.487.17.187.42.283.672.258a.842.842 0 0 0 .91-.944 1.046 1.046 0 0 0-.54-.872zm-.325-1.143c.296 0 .335.36.335.623a.788.788 0 0 1-.112.447 3.548 3.548 0 0 1-.355-.292.628.628 0 0 1-.175-.433.307.307 0 0 1 .33-.345h-.023zm0 2.847c-.312 0-.365-.414-.365-.682a1.231 1.231 0 0 1 .136-.588c.141.095.272.206.39.33a.696.696 0 0 1 .189.487c.02.253-.073.453-.326.453h-.024zM103.105 38.092a.642.642 0 0 0 .486-.598c0-.487-.404-.672-.793-.672a.774.774 0 0 0-.837.852.973.973 0 0 0 .487.769.7.7 0 0 0-.526.72.735.735 0 0 0 .175.487c.17.187.42.283.672.258a.842.842 0 0 0 .91-.944 1.046 1.046 0 0 0-.574-.872zm-.326-1.143c.296 0 .335.36.335.623a.788.788 0 0 1-.112.447 3.547 3.547 0 0 1-.355-.292.633.633 0 0 1-.18-.433.311.311 0 0 1 .312-.345zm0 2.847c-.312 0-.36-.414-.36-.682a1.231 1.231 0 0 1 .136-.588c.14.096.268.206.384.33a.7.7 0 0 1 .195.487c.014.253-.078.453-.34.453h-.015zM104.959 38.092a.642.642 0 0 0 .486-.598c0-.487-.404-.672-.793-.672a.774.774 0 0 0-.837.852.973.973 0 0 0 .487.769.7.7 0 0 0-.555.72.735.735 0 0 0 .175.487c.17.187.42.283.672.258a.842.842 0 0 0 .91-.944 1.056 1.056 0 0 0-.545-.872zm-.326-1.143c.296 0 .335.36.335.623a.788.788 0 0 1-.112.447 3.07 3.07 0 0 1-.355-.292.633.633 0 0 1-.18-.433.307.307 0 0 1 .312-.345zm0 2.847c-.312 0-.36-.414-.36-.682a1.231 1.231 0 0 1 .136-.588c.14.096.268.206.384.33a.7.7 0 0 1 .195.487c.014.253-.078.453-.34.453h-.015zM98.837 35.377h6.375l.277 1.28h1.144l-2.161-10.409h-1.158l.277 1.421h-3.129s.205-.973.248-1.42h-1.133l-2.185 10.408h1.148l.297-1.28zm1.372-6.681h3.62l.225 1.075h-4.078l.233-1.075zm-.443 2.068h4.516l.229 1.26h-4.978l.233-1.26zm-.486 2.326h5.455l.248 1.168h-5.942l.239-1.168z" fill-rule="nonzero"/><path d="M109.08 24.141H94.968a.633.633 0 0 0-.632.633V35.04c.253 4.151 4.073 7.3 7.64 8.618 3.606-1.401 7.391-4.413 7.761-8.579V24.774a.633.633 0 0 0-.657-.633zm-.632 10.88c-.248 3.47-3.523 6.074-6.458 7.3a12.652 12.652 0 0 1-3.197-1.81c-1.902-1.528-3.216-3.494-3.246-5.903v-9.245h12.9v9.659zM153.046 27.698a3.445 3.445 0 0 0-3.591-3.6h-5.032a.564.564 0 0 0-.564.564v12.837h1.805a.565.565 0 0 0 .57-.565V25.198h1.82c2.364 0 2.71 1.206 2.71 2.705 0 1.498-1.401 2.608-3.835 2.715l3.966 6.861h2.477l-3.927-6.204c1.888-.239 3.601-1.596 3.601-3.577zM176.258 23.844a6.983 6.983 0 0 0-5.08 5.319 7.509 7.509 0 0 0 2.968 7.728 6.17 6.17 0 0 0 6.175.31 6.905 6.905 0 0 0 2.92-3.182c1.09-2.335.798-5.61-.774-7.63-1.523-1.883-3.727-3.09-6.21-2.545zm4.9 9.017a5.873 5.873 0 0 1-1.46 3.095 3.309 3.309 0 0 1-3.542.604c-1.947-.974-2.38-3.14-2.56-5.13-.102-2.535.136-5.386 2.681-6.476a3.309 3.309 0 0 1 3.056.404c2.16 1.737 2.16 4.827 1.825 7.503zM136.088 24.097h-3.694a.564.564 0 0 0-.564.565v12.837h4.258c4.219 0 6.695-2.998 6.695-6.696 0-3.698-2.476-6.706-6.695-6.706zm-1.358 12.341h-.535v-11.24h.535c4.38 0 5.577 2.52 5.577 5.615s-1.183 5.625-5.577 5.625zM156.847 24.097h-1.806a.564.564 0 0 0-.564.565v12.837h1.81a.56.56 0 0 0 .565-.565v-.754l-.005-12.083zM198.652 24.097h-.754a.564.564 0 0 0-.565.565v12.837h1.81a.564.564 0 0 0 .565-.565V24.097h-1.056zM123.625 24.097h-.253a.564.564 0 0 0-.564.565v12.837h7.693v-1.061h-5.323v-5.309h4.34a.564.564 0 0 0 .565-.565V30h-4.905v-4.803h5.323v-1.1h-6.876zM168.662 30.76h-.234a.57.57 0 0 0-.57.564v4.447a4.803 4.803 0 0 1-1.4.725 4.423 4.423 0 0 1-4.38-1.06c-1.747-1.806-1.947-4.75-1.26-7.13.437-1.46 1.78-3.007 3.328-3.289 1.946-.487 3.796.487 4.866 2.015l.852-.599a5.275 5.275 0 0 0-1.426-1.596c-1.693-1.372-4.58-1.358-6.526-.423a7.226 7.226 0 0 0-3.97 6.467 6.764 6.764 0 0 0 4.029 6.404c2.705 1.187 5.98.365 8.087-1.46v-5.066h-1.42.024zM194.141 33.236l-6.983-9.139h-1.538a.565.565 0 0 0-.569.565v12.837h1.421v-10.56l7.679 10.56h.866a.565.565 0 0 0 .57-.565V24.097h-1.436l-.01 9.139zM114.998 24.097h-.385a.564.564 0 0 0-.564.565v12.837h1.761a.564.564 0 0 0 .565-.565V31.13h4.38c.307 0 .558-.247.564-.555v-.56h-4.925v-4.783H121.747v-1.134h-6.75zM113.82 42.112h3.007v.676h-2.253v1.616h2.17v.681h-2.17v1.65h2.321v.671h-3.08zM119.1 45.192l-.58-.35a2.652 2.652 0 0 1-.773-.652 1.24 1.24 0 0 1-.229-.735 1.304 1.304 0 0 1 .433-1.017 1.62 1.62 0 0 1 1.13-.394 2.15 2.15 0 0 1 1.22.374v.862a1.752 1.752 0 0 0-1.235-.55c-.216-.01-.43.05-.609.17a.52.52 0 0 0-.238.438.676.676 0 0 0 .175.448c.162.176.353.325.565.438l.579.34c.568.27.942.832.973 1.46.012.391-.144.768-.428 1.037a1.562 1.562 0 0 1-1.11.394 2.326 2.326 0 0 1-1.43-.487v-.973c.32.473.85.762 1.42.779a.866.866 0 0 0 .594-.2.613.613 0 0 0 .239-.486c0-.297-.234-.604-.696-.896zM121.387 47.416v-5.309h1.679c.44-.023.874.123 1.211.409.306.282.471.684.453 1.1a1.46 1.46 0 0 1-.234.822 1.3 1.3 0 0 1-.632.516 3.231 3.231 0 0 1-1.154.16h-.56v2.302h-.763zm1.547-4.633h-.783v1.655h.827c.256.016.51-.06.715-.214a.793.793 0 0 0 .249-.628c-.005-.545-.341-.813-1.013-.813h.005zM126.535 42.083h.53l2.38 5.353h-.759l-.705-1.572h-2.263l-.662 1.572h-.779l2.258-5.353zm1.115 3.085l-.857-1.917-.793 1.897 1.65.02zM134.316 42.112h.72v5.304h-.652l-3.542-4.083v4.083h-.696v-5.304h.613l3.577 4.122-.02-4.122zm-.525-1.46a1.12 1.12 0 0 1-.214.715.487.487 0 0 1-.4.205 1.533 1.533 0 0 1-.559-.156 1.63 1.63 0 0 0-.53-.15.243.243 0 0 0-.176.077.433.433 0 0 0-.087.229h-.316c.003-.255.079-.503.218-.716a.487.487 0 0 1 .404-.18c.249.025.49.093.716.2.115.054.238.088.365.102a.243.243 0 0 0 .18-.073.487.487 0 0 0 .102-.253h.297zM137.932 42.083h.535l2.38 5.353h-.779l-.676-1.592h-2.263l-.657 1.572h-.783l2.243-5.333zm1.12 3.085l-.857-1.917-.784 1.897 1.64.02z" fill-rule="nonzero"/></g></svg>