<svg width="216" height="69" viewBox="0 0 216 69" fill="none" xmlns="http://www.w3.org/2000/svg">
<path d="M4.23262 39.448L2.59418 45.6838H0L6.00759 23.3164H10.3767L16.3843 45.6838H13.7901L12.1517 39.448H4.23262ZM8.19216 25.0787L4.77876 37.5502H11.469L8.19216 25.0787Z" fill="black"/>
<path d="M24.44 46.226C20.4804 46.226 17.3401 42.9725 17.3401 39.1769V29.9588C17.3401 26.0275 20.617 22.9097 24.44 22.9097C28.3995 22.9097 31.5398 26.1631 31.5398 29.9588V31.3144H28.9457V29.6877C28.9457 27.2476 26.8976 25.2142 24.44 25.2142C21.9823 25.2142 19.9343 27.2476 19.9343 29.6877V39.448C19.9343 41.8881 21.9823 43.9215 24.44 43.9215C26.0784 43.9215 27.5803 43.5148 28.9457 42.9725V36.8723H24.44V34.9745H31.5398V44.3281C29.4918 45.5482 27.0341 46.226 24.44 46.226Z" fill="black"/>
<path d="M37.1378 39.448L35.4993 45.6838H32.9052L38.9127 23.3164H43.2819L49.2895 45.6838H46.6953L45.0569 39.448H37.1378ZM41.0973 25.0787L37.6839 37.5502H44.3742L41.0973 25.0787Z" fill="black"/>
<path d="M57.2086 22.9097C62.2605 22.9097 64.5816 26.9765 64.5816 29.9588V38.6346C64.5816 42.5659 61.3047 45.6837 57.4817 45.6837H50.6549V23.8586C52.5664 23.1808 54.8875 22.9097 57.2086 22.9097ZM53.2491 43.3792H57.3452C59.8028 43.3792 61.8509 41.3458 61.8509 38.9057V29.8232C61.8509 27.3831 59.8028 25.3497 57.3452 25.3497H53.2491V43.3792Z" fill="black"/>
<path d="M69.9064 23.3164V45.6838H67.3123V23.3164H69.9064Z" fill="black"/>
<path d="M84.5158 31.3144V29.6877C84.5158 27.2476 82.4678 25.2142 80.0101 25.2142C77.5525 25.2142 75.5045 27.2476 75.5045 29.6877V39.448C75.5045 41.8881 77.5525 43.9215 80.0101 43.9215C82.3313 43.9215 84.5158 43.2437 86.2908 42.2947V44.7348C84.3793 45.6837 82.1947 46.226 80.0101 46.226C76.0506 46.226 72.9103 42.9725 72.9103 39.1769V29.9588C72.9103 26.0275 76.1871 22.9097 80.0101 22.9097C83.9697 22.9097 87.11 26.1631 87.11 29.9588V31.3144H84.5158Z" fill="black"/>
<path d="M117.421 6.778L118.377 6.1002V0L110.185 5.55796V9.62475L117.421 6.778Z" fill="#A6A6A5"/>
<path d="M103.358 10.167L95.8483 15.1827L101.446 13.0138L103.358 10.167Z" fill="#A6A6A5"/>
<path d="M95.8483 53.8174L103.358 58.9687L101.446 55.9863L95.8483 53.8174Z" fill="#A6A6A5"/>
<path d="M110.185 59.375V63.5774L118.377 68.9998V63.0351L117.421 62.3573L110.185 59.375Z" fill="#A6A6A5"/>
<path d="M134.761 0L126.569 3.25344V65.8821L134.761 69V0Z" fill="#D0D0D0"/>
<path d="M110.185 59.3756L117.421 62.3579L110.185 56.9355V59.3756Z" fill="#8A8989"/>
<path d="M117.421 6.77783L110.185 9.62459V12.2002L117.421 6.77783Z" fill="#8A8989"/>
<path d="M99.9443 53.8172V15.1826L101.446 13.0137L95.8483 15.1826V53.8172L101.446 55.9862L99.9443 53.8172Z" fill="#878787"/>
<path d="M126.569 3.25344V0L118.377 6.1002V6.37132L126.569 3.25344Z" fill="#C2C2C2"/>
<path d="M118.377 63.0356L126.569 69.0002V65.8823L118.377 62.6289V63.0356Z" fill="#C2C2C2"/>
<path d="M118.377 6.37122V6.1001L117.421 6.7779L118.377 6.37122Z" fill="#838382"/>
<path d="M117.421 62.3574L118.377 63.0352V62.6285L117.421 62.3574Z" fill="#838382"/>
<path d="M118.377 6.3713V62.6287L126.569 65.8821V3.25342L118.377 6.3713Z" fill="#9F9F9F"/>
<path d="M110.185 12.2007V56.9354L117.421 62.3578L118.377 62.629V6.37158L117.421 6.77826L110.185 12.2007Z" fill="#6D6D6C"/>
<path d="M110.185 69.0002V63.5778L103.358 58.9688L110.185 69.0002Z" fill="#CACACA"/>
<path d="M110.185 0L103.358 10.167L110.185 5.55796V0Z" fill="#CACACA"/>
<path d="M110.185 9.62441V5.55762L103.358 10.1667L101.446 13.0134L110.185 9.62441Z" fill="#878787"/>
<path d="M101.446 55.9863L103.358 58.9686L110.185 63.5777V59.3753L101.446 55.9863Z" fill="#878787"/>
<path d="M106.088 53.8171V15.1825L110.185 12.2002V9.62451L101.446 13.0135L99.9443 15.1825V53.8171L101.446 55.986L110.185 59.375V56.9349L106.088 53.8171Z" fill="#706F6F"/>
<path d="M106.089 53.8171L110.185 56.935V12.2002L106.089 15.1825V53.8171Z" fill="#5C5C5B"/>
<path d="M143.499 45.6835V36.8721H144.182V45.6835H143.499Z" fill="black"/>
<path d="M148.278 45.6836V40.939C148.278 40.2612 147.869 39.8546 147.459 39.8546C146.913 39.8546 146.503 40.1257 146.503 40.939V45.6836H145.821V39.3123H146.503V39.8546C146.64 39.719 146.776 39.5834 146.913 39.4479C147.049 39.3123 147.322 39.1768 147.595 39.1768C148.005 39.1768 148.278 39.3123 148.551 39.5834C148.824 39.8546 148.961 40.1257 148.961 40.8035V45.5481H148.278V45.6836Z" fill="black"/>
<path d="M152.92 45.6835V45.1412C152.92 45.2768 152.647 45.4123 152.511 45.5479C152.238 45.6835 152.101 45.819 151.828 45.819C151.418 45.819 151.145 45.6835 150.872 45.4123C150.463 45.0057 150.463 44.1923 150.463 42.5656C150.463 40.9389 150.599 40.1255 150.872 39.7188C151.145 39.4477 151.418 39.3121 151.828 39.3121C152.101 39.3121 152.374 39.3121 152.511 39.4477C152.647 39.5833 152.784 39.7188 152.784 39.8544V36.8721H153.467V45.6835H152.92ZM152.784 40.9389C152.784 40.5322 152.647 40.2611 152.511 40.1255C152.374 39.9899 152.101 39.8544 151.965 39.8544C151.692 39.8544 151.555 39.9899 151.418 40.1255C151.145 40.5322 151.145 41.0744 151.145 42.43C151.145 43.7856 151.145 44.4634 151.418 44.7345C151.555 44.8701 151.828 45.0057 151.965 45.0057C152.238 45.0057 152.374 44.8701 152.511 44.7345C152.647 44.599 152.784 44.3279 152.784 43.7856V40.9389Z" fill="black"/>
<path d="M157.563 45.6838V45.1416C157.426 45.2771 157.289 45.4127 157.153 45.5483C157.016 45.6838 156.743 45.8194 156.47 45.8194C156.061 45.8194 155.788 45.6838 155.515 45.4127C155.241 45.1416 155.105 44.7349 155.105 44.1927V39.3125H155.788V44.0571C155.788 44.7349 156.197 45.1416 156.607 45.1416C157.153 45.1416 157.563 44.8705 157.563 44.0571V39.3125H158.245V45.6838H157.563Z" fill="black"/>
<path d="M162.205 45.2768C161.932 45.548 161.522 45.8191 160.976 45.8191C160.43 45.8191 160.157 45.6835 159.747 45.4124C159.338 45.0057 159.201 44.599 159.201 44.0568H159.884C159.884 44.4635 160.02 44.7346 160.157 45.0057C160.293 45.1413 160.566 45.2768 160.839 45.2768C161.113 45.2768 161.386 45.1413 161.522 45.0057C161.659 44.8702 161.795 44.599 161.795 44.1924C161.795 43.9212 161.795 43.6501 161.659 43.5146C161.522 43.2434 161.386 43.1079 160.976 42.9723L160.157 42.5656C159.747 42.2945 159.474 42.0234 159.338 41.8878C159.201 41.6167 159.201 41.3456 159.201 41.0745C159.201 40.5322 159.338 40.1256 159.747 39.8544C160.02 39.5833 160.43 39.4478 160.839 39.4478C161.249 39.4478 161.659 39.5833 161.932 39.8544C162.205 40.1256 162.341 40.6678 162.341 41.21H161.659C161.659 40.8034 161.522 40.5322 161.386 40.2611C161.249 40.1256 160.976 39.99 160.703 39.99C160.43 39.99 160.157 40.1256 160.02 40.2611C159.884 40.3967 159.747 40.8034 159.747 40.9389C159.747 41.21 159.747 41.3456 159.884 41.4812C160.02 41.6167 160.157 41.7523 160.43 41.8878L161.249 42.2945C161.659 42.5656 161.932 42.7012 162.068 42.9723C162.205 43.2434 162.341 43.6501 162.341 43.9212C162.751 44.599 162.478 45.0057 162.205 45.2768Z" fill="black"/>
<path d="M164.526 45.277C164.253 45.0059 164.116 44.5992 164.116 43.9214V39.8546H163.297V39.3124H164.116V37.4146H164.799V39.3124H165.891V39.8546H164.799V43.9214C164.799 44.7348 165.209 45.0059 165.891 45.0059V45.6837C165.482 45.6837 164.936 45.6837 164.526 45.277Z" fill="black"/>
<path d="M168.895 39.9901C168.212 39.9901 167.666 40.3968 167.666 41.2102V45.6836H166.984V39.3123H167.666V39.9901C167.666 39.8546 167.939 39.719 167.939 39.5834C168.212 39.3123 168.622 39.1768 169.032 39.1768V39.8546H168.895V39.9901Z" fill="black"/>
<path d="M169.987 37.9567V37.0078H170.943V37.9567H169.987ZM169.987 45.6836V39.3123H170.67V45.6836H169.987Z" fill="black"/>
<path d="M174.493 45.6838V45.1416C174.357 45.2771 174.22 45.4127 174.083 45.5483C173.947 45.6838 173.674 45.8194 173.264 45.8194C172.855 45.8194 172.582 45.6838 172.308 45.4127C172.035 45.1416 171.899 44.7349 171.899 43.9215C171.899 43.3793 172.035 42.8371 172.445 42.4304C172.718 42.1593 173.128 42.0237 173.674 42.0237H174.357V40.9392C174.357 40.2614 174.083 39.8547 173.537 39.8547C173.264 39.8547 173.128 39.9903 172.991 40.1259C172.855 40.397 172.718 40.5325 172.718 41.0748H172.035C172.035 40.6681 172.172 40.1259 172.445 39.7192C172.718 39.4481 173.128 39.3125 173.537 39.3125C174.083 39.3125 174.493 39.4481 174.63 39.7192C174.903 39.9903 175.039 40.397 175.039 41.0748V45.8194H174.493V45.6838ZM174.493 42.7015H173.81C173.537 42.7015 173.264 42.8371 172.991 42.9726C172.718 43.2437 172.718 43.5149 172.718 44.0571C172.718 44.8705 172.991 45.2771 173.674 45.2771C174.22 45.2771 174.63 44.7349 174.63 44.1927V42.7015H174.493Z" fill="black"/>
<path d="M179.135 45.2768C178.862 45.548 178.453 45.8191 177.907 45.8191C177.36 45.8191 177.087 45.6835 176.678 45.4124C176.268 45.0057 176.132 44.599 176.132 44.0568H176.814C176.814 44.4635 176.951 44.7346 177.087 45.0057C177.224 45.1413 177.497 45.2768 177.77 45.2768C178.043 45.2768 178.316 45.1413 178.453 45.0057C178.589 44.8702 178.726 44.599 178.726 44.1924C178.726 43.9212 178.726 43.6501 178.589 43.5146C178.453 43.2434 178.316 43.1079 177.907 42.9723L177.087 42.5656C176.678 42.2945 176.405 42.0234 176.268 41.8878C176.132 41.6167 176.132 41.3456 176.132 41.0745C176.132 40.5322 176.268 40.1256 176.678 39.8544C176.951 39.5833 177.36 39.4478 177.77 39.4478C178.18 39.4478 178.589 39.5833 178.862 39.8544C179.135 40.1256 179.272 40.6678 179.272 41.21H178.862C178.862 40.8034 178.726 40.5322 178.589 40.2611C178.453 40.1256 178.18 39.99 177.907 39.99C177.633 39.99 177.36 40.1256 177.224 40.2611C177.087 40.3967 176.951 40.8034 176.951 40.9389C176.951 41.21 176.951 41.3456 177.087 41.4812C177.224 41.6167 177.36 41.7523 177.633 41.8878L178.453 42.2945C178.862 42.5656 179.135 42.7012 179.272 42.9723C179.408 43.2434 179.545 43.6501 179.545 43.9212C179.681 44.599 179.545 45.0057 179.135 45.2768Z" fill="black"/>
<path d="M186.372 45.4125C186.099 45.6836 185.689 45.8191 185.143 45.8191C184.597 45.8191 184.051 45.6836 183.778 45.2769C183.231 44.7347 183.095 43.9213 183.095 41.2101C183.095 38.4989 183.095 37.8211 183.778 37.1433C184.051 36.8722 184.46 36.6011 185.143 36.6011C185.689 36.6011 186.099 36.7366 186.372 37.0078C186.781 37.4144 186.918 37.9567 186.918 38.6345H186.235C186.235 38.2278 186.099 37.6856 185.826 37.4144C185.689 37.2789 185.416 37.1433 185.006 37.1433C184.597 37.1433 184.46 37.2789 184.187 37.4144C183.778 37.8211 183.778 38.3634 183.778 40.939C183.778 43.5146 183.778 44.0569 184.187 44.4635C184.324 44.5991 184.597 44.7347 185.006 44.7347C185.416 44.7347 185.552 44.5991 185.826 44.4635C186.099 44.1924 186.235 43.7858 186.235 43.2435H186.918C186.918 44.328 186.781 45.0058 186.372 45.4125Z" fill="black"/>
<path d="M190.604 45.6838V45.1416C190.468 45.2771 190.331 45.4127 190.195 45.5483C190.058 45.6838 189.785 45.8194 189.512 45.8194C189.102 45.8194 188.829 45.6838 188.556 45.4127C188.283 45.1416 188.147 44.7349 188.147 44.1927V39.3125H188.829V44.0571C188.829 44.7349 189.239 45.1416 189.649 45.1416C190.058 45.1416 190.604 44.8705 190.604 44.0571V39.3125H191.287V45.6838H190.604Z" fill="black"/>
<path d="M193.335 45.2766C193.062 45.0055 192.925 44.5988 192.925 43.921V36.7363H193.608V43.921C193.608 44.5988 193.881 45.0055 194.7 45.0055V45.6833C194.154 45.6833 193.608 45.6833 193.335 45.2766Z" fill="black"/>
<path d="M196.202 45.277C195.929 45.0059 195.793 44.5992 195.793 43.9214V39.8546H194.973V39.3124H195.793V37.4146H196.475V39.3124H197.568V39.8546H196.475V43.9214C196.475 44.7348 196.885 45.0059 197.568 45.0059V45.6837C197.021 45.6837 196.612 45.6837 196.202 45.277Z" fill="black"/>
<path d="M200.981 45.6838V45.1416C200.844 45.2771 200.708 45.4127 200.571 45.5483C200.435 45.6838 200.162 45.8194 199.889 45.8194C199.479 45.8194 199.206 45.6838 198.933 45.4127C198.66 45.1416 198.523 44.7349 198.523 44.1927V39.3125H199.206V44.0571C199.206 44.7349 199.616 45.1416 200.025 45.1416C200.435 45.1416 200.981 44.8705 200.981 44.0571V39.3125H201.664V45.6838H200.981Z" fill="black"/>
<path d="M205.214 39.9901C204.394 39.9901 203.985 40.3968 203.985 41.2102V45.6836H203.302V39.3123H203.985V39.9901C203.985 39.8546 204.258 39.719 204.258 39.5834C204.531 39.3123 204.941 39.1768 205.35 39.1768V39.8546H205.214V39.9901Z" fill="black"/>
<path d="M208.491 45.6838V45.1416C208.354 45.2771 208.217 45.4127 208.081 45.5483C207.944 45.6838 207.671 45.8194 207.262 45.8194C206.852 45.8194 206.579 45.6838 206.306 45.4127C206.033 45.1416 205.896 44.7349 205.896 43.9215C205.896 43.3793 206.033 42.8371 206.442 42.4304C206.716 42.1593 207.125 42.0237 207.671 42.0237H208.354V40.9392C208.354 40.2614 208.081 39.8547 207.535 39.8547C207.262 39.8547 207.125 39.9903 206.989 40.1259C206.852 40.397 206.716 40.5325 206.716 41.0748H206.033C206.033 40.6681 206.169 40.1259 206.442 39.7192C206.716 39.4481 207.125 39.3125 207.535 39.3125C208.081 39.3125 208.491 39.4481 208.627 39.7192C208.9 39.9903 209.037 40.397 209.037 41.0748V45.8194H208.491V45.6838ZM208.491 42.7015H207.808C207.535 42.7015 207.262 42.8371 206.989 42.9726C206.716 43.2437 206.716 43.5149 206.716 44.0571C206.716 44.8705 206.989 45.2771 207.671 45.2771C208.217 45.2771 208.627 44.7349 208.627 44.1927V42.7015H208.491Z" fill="black"/>
<path d="M210.675 37.9567V37.0078H211.631V37.9567H210.675ZM210.812 45.6836V39.3123H211.494V45.6836H210.812Z" fill="black"/>
<path d="M215.59 45.2768C215.317 45.548 214.908 45.8191 214.362 45.8191C213.815 45.8191 213.542 45.6835 213.133 45.4124C212.723 45.0057 212.587 44.599 212.587 44.0568H213.269C213.269 44.4635 213.406 44.7346 213.542 45.0057C213.679 45.1413 213.952 45.2768 214.225 45.2768C214.498 45.2768 214.771 45.1413 214.908 45.0057C215.044 44.8702 215.181 44.599 215.181 44.1924C215.181 43.9212 215.181 43.6501 215.044 43.5146C214.908 43.2434 214.771 43.1079 214.362 42.9723L213.542 42.5656C213.133 42.2945 212.86 42.0234 212.723 41.8878C212.587 41.6167 212.587 41.3456 212.587 41.0745C212.587 40.5322 212.723 40.1256 213.133 39.8544C213.406 39.5833 213.815 39.4478 214.225 39.4478C214.635 39.4478 215.044 39.5833 215.317 39.8544C215.59 40.1256 215.727 40.6678 215.727 41.21H215.044C215.044 40.8034 214.908 40.5322 214.771 40.2611C214.635 40.1256 214.362 39.99 214.089 39.99C213.815 39.99 213.542 40.1256 213.406 40.2611C213.269 40.3967 213.133 40.8034 213.133 40.9389C213.133 41.21 213.133 41.3456 213.269 41.4812C213.406 41.6167 213.542 41.7523 213.815 41.8878L214.635 42.2945C215.044 42.5656 215.317 42.7012 215.454 42.9723C215.59 43.2434 215.727 43.6501 215.727 43.9212C216 44.599 215.863 45.0057 215.59 45.2768Z" fill="black"/>
<path d="M146.913 31.9921L146.367 29.552H144.319L143.909 31.9921H143.09L145.138 23.1807H145.821L147.732 31.9921H146.913ZM145.411 24.5363L144.455 29.0097H146.23L145.411 24.5363Z" fill="black"/>
<path d="M150.736 31.9924L149.78 29.4168L148.688 31.9924H147.869L149.234 28.739L147.869 25.6211H148.688L149.643 28.1967L150.599 25.6211H151.418L150.053 28.739L151.418 31.9924H150.736Z" fill="black"/>
<path d="M153.193 29.0101C153.193 30.3657 153.193 30.9079 153.466 31.3146C153.603 31.4502 153.876 31.5857 154.149 31.5857C154.422 31.5857 154.559 31.4502 154.832 31.3146C154.968 31.1791 155.105 30.7724 155.105 30.3657H155.788C155.788 30.9079 155.651 31.3146 155.378 31.7213C155.105 31.9924 154.695 32.128 154.286 32.128C153.74 32.128 153.466 31.9924 153.193 31.7213C152.784 31.3146 152.647 30.5013 152.647 28.8745C152.647 27.3834 152.784 26.57 153.193 26.0278C153.466 25.7567 153.876 25.6211 154.286 25.6211C154.832 25.6211 155.105 25.7567 155.378 26.0278C155.788 26.57 155.924 27.3834 155.924 28.8745H153.193V29.0101ZM154.695 26.57C154.559 26.4345 154.422 26.2989 154.013 26.2989C153.74 26.2989 153.466 26.4345 153.33 26.57C153.057 26.8411 153.057 27.3834 153.057 28.4679H154.968C154.968 27.3834 154.968 26.8411 154.695 26.57Z" fill="black"/>
<path d="M159.611 31.9924V27.2478C159.611 26.57 159.201 26.1633 158.791 26.1633C158.245 26.1633 157.836 26.4345 157.836 27.2478V31.9924H157.153V25.7567H157.836V26.2989C157.972 26.1633 158.109 26.0278 158.245 25.8922C158.382 25.7567 158.655 25.6211 158.928 25.6211C159.338 25.6211 159.611 25.7567 159.884 26.0278C160.157 26.2989 160.293 26.57 160.293 27.2478V31.9924H159.611Z" fill="black"/>
<path d="M164.526 31.7213C164.253 31.9924 163.843 32.128 163.434 32.128C163.024 32.128 162.478 31.9924 162.205 31.5857C161.795 31.1791 161.795 30.3657 161.795 28.8745C161.795 27.3834 161.932 26.57 162.205 26.1633C162.478 25.8922 162.888 25.6211 163.434 25.6211C163.98 25.6211 164.253 25.7567 164.526 26.0278C164.936 26.4345 164.936 26.9767 164.936 27.3834H164.253C164.253 27.1123 164.253 26.7056 163.98 26.4345C163.843 26.2989 163.57 26.1633 163.297 26.1633C163.024 26.1633 162.751 26.2989 162.614 26.4345C162.341 26.8411 162.341 27.3834 162.341 28.739C162.341 30.0946 162.341 30.7724 162.614 31.0435C162.751 31.1791 163.024 31.3146 163.297 31.3146C163.57 31.3146 163.707 31.1791 163.843 31.0435C164.116 30.7724 164.116 30.5013 164.116 30.0946H164.799C164.936 31.0435 164.799 31.4502 164.526 31.7213Z" fill="black"/>
<path d="M166.164 24.2653V23.3164H167.12V24.2653H166.164ZM166.301 31.9922V25.7565H166.984V32.1278H166.301V31.9922Z" fill="black"/>
<path d="M170.807 31.9924V31.4502C170.67 31.5857 170.534 31.7213 170.397 31.8569C170.26 31.9924 169.987 32.128 169.578 32.128C169.168 32.128 168.895 31.9924 168.622 31.7213C168.349 31.4502 168.212 31.0435 168.212 30.2301C168.212 29.6879 168.349 29.1457 168.759 28.739C169.032 28.4679 169.441 28.3323 169.987 28.3323H170.67V27.2478C170.67 26.57 170.397 26.1633 169.851 26.1633C169.578 26.1633 169.441 26.2989 169.305 26.4345C169.168 26.7056 169.032 26.8411 169.032 27.3834H168.349C168.349 26.9767 168.485 26.4345 168.759 26.0278C169.032 25.7567 169.441 25.6211 169.851 25.6211C170.397 25.6211 170.807 25.7567 170.943 26.0278C171.216 26.2989 171.353 26.7056 171.353 27.3834V32.128H170.807V31.9924ZM170.807 29.0101H170.124C169.851 29.0101 169.578 29.1457 169.305 29.2812C169.032 29.5523 169.032 29.8235 169.032 30.3657C169.032 31.1791 169.305 31.5857 169.987 31.5857C170.534 31.5857 170.943 31.0435 170.943 30.5013V29.0101H170.807Z" fill="black"/>
<path d="M177.224 32.1277C176.678 32.1277 176.132 31.9922 175.858 31.5855C175.312 31.0433 175.176 30.2299 175.176 27.5187C175.176 24.8075 175.176 24.1297 175.858 23.4519C176.132 23.1808 176.541 22.9097 177.224 22.9097C177.906 22.9097 178.18 23.0452 178.453 23.4519C178.862 23.8586 178.999 24.4008 178.999 25.0786H178.316C178.316 24.4008 178.043 23.5875 177.224 23.5875C176.814 23.5875 176.678 23.723 176.405 23.8586C175.995 24.2653 175.995 24.8075 175.995 27.3831C175.995 29.9588 175.995 30.501 176.405 30.9077C176.541 31.0433 176.814 31.1788 177.224 31.1788C177.906 31.1788 178.316 30.6366 178.316 29.8232V27.6543H177.224V26.9765H179.135V29.8232C179.135 31.4499 178.316 32.1277 177.224 32.1277Z" fill="black"/>
<path d="M182.958 31.9924V31.4502C182.822 31.5857 182.685 31.7213 182.549 31.8569C182.412 31.9924 182.139 32.128 181.729 32.128C181.32 32.128 181.047 31.9924 180.774 31.7213C180.501 31.4502 180.364 31.0435 180.364 30.2301C180.364 29.6879 180.501 29.1457 180.91 28.739C181.183 28.4679 181.593 28.3323 182.139 28.3323H182.822V27.2478C182.822 26.57 182.549 26.1633 182.003 26.1633C181.729 26.1633 181.593 26.2989 181.456 26.4345C181.32 26.7056 181.183 26.8411 181.183 27.3834H180.501C180.501 26.9767 180.637 26.4345 180.91 26.0278C181.183 25.7567 181.593 25.6211 182.003 25.6211C182.549 25.6211 182.958 25.7567 183.095 26.0278C183.368 26.2989 183.504 26.7056 183.504 27.3834V32.128H182.958V31.9924ZM182.822 29.0101H182.139C181.866 29.0101 181.593 29.1457 181.32 29.2812C181.047 29.5523 181.047 29.8235 181.047 30.3657C181.047 31.1791 181.32 31.5857 182.003 31.5857C182.549 31.5857 182.958 31.0435 182.958 30.5013V29.0101H182.822Z" fill="black"/>
<path d="M185.552 31.5852C185.279 31.3141 185.143 30.9074 185.143 30.2296V23.0449H185.826V30.2296C185.826 30.9074 186.099 31.3141 186.918 31.3141V31.9919C186.372 31.9919 185.962 31.9919 185.552 31.5852Z" fill="black"/>
<path d="M188.42 29.0101C188.42 30.3657 188.42 30.9079 188.693 31.3146C188.829 31.4502 189.102 31.5857 189.375 31.5857C189.649 31.5857 189.785 31.4502 190.058 31.3146C190.195 31.1791 190.331 30.7724 190.331 30.3657H191.014C191.014 30.9079 190.877 31.3146 190.604 31.7213C190.331 31.9924 189.922 32.128 189.512 32.128C188.966 32.128 188.693 31.9924 188.42 31.7213C188.01 31.3146 187.874 30.5013 187.874 28.8745C187.874 27.3834 188.01 26.57 188.42 26.0278C188.693 25.7567 189.102 25.6211 189.512 25.6211C190.058 25.6211 190.331 25.7567 190.604 26.0278C191.014 26.57 191.15 27.3834 191.15 28.8745H188.42V29.0101ZM190.058 26.57C189.922 26.4345 189.785 26.2989 189.375 26.2989C189.102 26.2989 188.829 26.4345 188.693 26.57C188.42 26.8411 188.42 27.3834 188.42 28.4679H190.331C190.331 27.3834 190.331 26.8411 190.058 26.57Z" fill="black"/>
<path d="M194.973 34.1611C194.7 34.4322 194.291 34.5677 193.881 34.5677C193.472 34.5677 193.062 34.4322 192.789 34.1611C192.516 33.8899 192.379 33.4833 192.379 32.8055H193.062C193.062 33.2121 193.062 33.4833 193.335 33.7544C193.472 33.8899 193.745 34.0255 193.881 34.0255C194.154 34.0255 194.427 33.8899 194.564 33.7544C194.837 33.4833 194.837 33.0766 194.837 32.2632V31.4499C194.837 31.5854 194.564 31.721 194.564 31.8565C194.427 31.9921 194.154 31.9921 193.881 31.9921C193.472 31.9921 193.199 31.8565 192.925 31.5854C192.516 31.1787 192.379 30.3654 192.379 28.8742C192.379 27.2475 192.516 26.5697 192.925 26.163C193.199 25.8919 193.472 25.7563 193.881 25.7563C194.154 25.7563 194.427 25.8919 194.564 26.0275C194.7 26.163 194.837 26.2986 194.837 26.4341V25.7563H195.52V32.2632C195.383 33.3477 195.383 33.7544 194.973 34.1611ZM194.7 27.3831C194.7 26.9764 194.564 26.7053 194.427 26.5697C194.291 26.4341 194.018 26.2986 193.881 26.2986C193.608 26.2986 193.472 26.4341 193.335 26.5697C193.062 26.8408 193.062 27.5186 193.062 28.8742C193.062 30.2298 193.062 30.7721 193.335 31.1787C193.472 31.3143 193.745 31.4499 193.881 31.4499C194.154 31.4499 194.291 31.3143 194.427 31.1787C194.564 31.0432 194.7 30.7721 194.7 30.3654V27.3831Z" fill="black"/>
<path d="M199.343 31.9924V31.4502C199.206 31.5857 199.07 31.7213 198.933 31.8569C198.796 31.9924 198.523 32.128 198.114 32.128C197.704 32.128 197.431 31.9924 197.158 31.7213C196.885 31.4502 196.748 31.0435 196.748 30.2301C196.748 29.6879 196.885 29.1457 197.295 28.739C197.568 28.4679 197.977 28.3323 198.523 28.3323H199.206V27.2478C199.206 26.57 198.933 26.1633 198.387 26.1633C198.114 26.1633 197.977 26.2989 197.841 26.4345C197.704 26.7056 197.568 26.8411 197.568 27.3834H196.885C196.885 26.9767 197.021 26.4345 197.295 26.0278C197.568 25.7567 197.977 25.6211 198.387 25.6211C198.933 25.6211 199.343 25.7567 199.479 26.0278C199.752 26.2989 199.889 26.7056 199.889 27.3834V32.128H199.343V31.9924ZM199.343 29.0101H198.66C198.387 29.0101 198.114 29.1457 197.841 29.2812C197.568 29.5523 197.568 29.8235 197.568 30.3657C197.568 31.1791 197.841 31.5857 198.523 31.5857C199.07 31.5857 199.479 31.0435 199.479 30.5013V29.0101H199.343Z" fill="black"/>
<path d="M206.169 31.9921V31.4498C206.169 31.5854 205.896 31.7209 205.76 31.8565C205.487 31.9921 205.35 32.1276 205.077 32.1276C204.668 32.1276 204.394 31.9921 204.121 31.7209C203.712 31.3143 203.712 30.5009 203.712 28.8742C203.712 27.2475 203.848 26.4341 204.121 26.0274C204.394 25.7563 204.668 25.6207 205.077 25.6207C205.35 25.6207 205.623 25.6207 205.76 25.7563C205.896 25.8919 206.033 26.0274 206.033 26.163V23.1807H206.716V31.9921H206.169ZM206.169 27.383C206.169 26.9763 206.033 26.7052 205.896 26.5697C205.76 26.4341 205.487 26.2985 205.35 26.2985C205.077 26.2985 204.941 26.4341 204.804 26.5697C204.531 26.9763 204.531 27.5186 204.531 28.8742C204.531 30.2298 204.531 30.9076 204.804 31.1787C204.941 31.3143 205.214 31.4498 205.35 31.4498C205.623 31.4498 205.76 31.3143 205.896 31.1787C206.033 31.0431 206.169 30.772 206.169 30.2298V27.383Z" fill="black"/>
<path d="M210.675 31.9924V31.4502C210.539 31.5857 210.402 31.7213 210.266 31.8569C210.129 31.9924 209.856 32.128 209.446 32.128C209.037 32.128 208.764 31.9924 208.491 31.7213C208.217 31.4502 208.081 31.0435 208.081 30.2301C208.081 29.6879 208.217 29.1457 208.627 28.739C208.9 28.4679 209.31 28.3323 209.856 28.3323H210.539V27.2478C210.539 26.57 210.266 26.1633 209.719 26.1633C209.446 26.1633 209.31 26.2989 209.173 26.4345C209.037 26.7056 208.9 26.8411 208.9 27.3834H208.217C208.217 26.9767 208.354 26.4345 208.627 26.0278C208.9 25.7567 209.31 25.6211 209.719 25.6211C210.266 25.6211 210.675 25.7567 210.812 26.0278C211.085 26.2989 211.221 26.7056 211.221 27.3834V32.128H210.675V31.9924ZM210.675 29.0101H209.992C209.719 29.0101 209.446 29.1457 209.173 29.2812C208.9 29.5523 208.9 29.8235 208.9 30.3657C208.9 31.1791 209.173 31.5857 209.856 31.5857C210.402 31.5857 210.812 31.0435 210.812 30.5013V29.0101H210.675Z" fill="black"/>
<path d="M215.59 31.7212C215.317 31.9923 214.908 32.2634 214.362 32.2634C213.815 32.2634 213.542 32.1278 213.133 31.8567C212.723 31.45 212.587 31.0434 212.587 30.5011H213.269C213.269 30.9078 213.406 31.1789 213.542 31.45C213.679 31.5856 213.952 31.7212 214.225 31.7212C214.498 31.7212 214.771 31.5856 214.908 31.45C215.044 31.3145 215.181 31.0434 215.181 30.6367C215.181 30.3656 215.181 30.0944 215.044 29.9589C214.908 29.6878 214.771 29.5522 214.362 29.4166L213.542 29.01C213.133 28.7388 212.86 28.4677 212.723 28.3322C212.587 28.061 212.587 27.7899 212.587 27.5188C212.587 26.9766 212.723 26.5699 213.133 26.2988C213.406 26.0276 213.815 25.8921 214.225 25.8921C214.635 25.8921 215.044 26.0276 215.317 26.2988C215.59 26.5699 215.727 27.1121 215.727 27.6544H215.044C215.044 27.2477 214.908 26.9766 214.771 26.7054C214.635 26.5699 214.362 26.4343 214.089 26.4343C213.815 26.4343 213.542 26.5699 213.406 26.7054C213.269 26.841 213.133 27.2477 213.133 27.3832C213.133 27.6544 213.133 27.7899 213.269 27.9255C213.406 28.061 213.542 28.1966 213.815 28.3322L214.635 28.7388C215.044 29.01 215.317 29.1455 215.454 29.4166C215.59 29.6878 215.727 30.0944 215.727 30.3656C216 30.9078 215.863 31.3145 215.59 31.7212Z" fill="black"/>
</svg>
