<svg width="50" height="67" viewBox="0 0 75 100" fill="none" xmlns="http://www.w3.org/2000/svg">
<path d="M57.3438 70.17L58.5938 21.7929L59.8438 70.17H57.3438ZM54.6875 70.17L55.9375 12.983L57.1875 70.17H54.6875ZM52.0312 70.17L53.2812 0L54.5313 70.17H52.0312ZM49.375 70.17L50.625 12.983L51.875 70.17H49.375ZM46.7188 70.17L47.9688 21.7929L49.2188 70.17H46.7188ZM44.0625 70.17L45.3125 34.1577L46.5625 70.17H44.0625ZM41.4062 70.17L42.6562 25.0386L43.9062 70.17H41.4062ZM38.75 70.17L40 21.7929L41.25 70.17H38.75ZM36.0938 70.17L37.3438 12.983L38.5938 70.17H36.0938ZM33.4375 70.17L34.6875 21.7929L35.9375 70.17H33.4375ZM30.7813 70.17L32.0312 25.0386L33.2812 70.17H30.7813ZM28.125 70.17L29.375 34.1577L30.625 70.17H28.125ZM25.4687 70.17L26.7188 21.7929L27.9688 70.17H25.4687ZM22.8125 70.17L24.0625 12.983L25.3125 70.17H22.8125ZM20.1562 70.17L21.4062 0L22.6562 70.17H20.1562ZM17.5 70.17L18.75 12.983L20 70.17H17.5ZM6.25 77.1252C5.625 76.6615 4.84375 76.507 4.0625 76.507C1.5625 76.507 0 78.3617 0 81.9165C0 85.0077 1.875 86.7079 3.90625 86.7079C4.53125 86.7079 5.3125 86.5533 5.9375 86.0897L6.09375 84.8532H5.9375C5.46875 85.4714 4.6875 85.9351 4.0625 85.9351C2.34375 85.9351 1.5625 83.9258 1.5625 81.762C1.5625 79.7527 2.1875 77.4343 4.0625 77.4343C4.6875 77.4343 5.3125 78.0526 5.78125 78.6708H5.9375L6.25 77.1252ZM13.4375 81.1437C13.4375 83.153 12.8125 85.626 11.0938 85.626C9.53125 85.626 8.90625 83.7713 8.90625 81.9165C9.0625 79.7527 9.375 77.2798 11.4062 77.2798C12.9688 77.2798 13.4375 79.289 13.4375 81.1437ZM15.3125 81.4529C15.3125 78.2071 13.75 76.3524 11.5625 76.3524C9.375 76.3524 7.5 78.2071 7.5 81.4529C7.5 84.6986 9.0625 86.5533 11.25 86.5533C13.4375 86.5533 15.3125 84.6986 15.3125 81.4529ZM23.125 86.3988V76.6615C22.8125 76.6615 22.5 76.6615 22.3438 76.6615V83.3076C20.7812 80.9892 19.375 78.8253 17.8125 76.6615H16.7188V86.3988C17.0312 86.3988 17.1875 86.3988 17.5 86.3988V79.4436C19.0625 81.762 20.625 84.0804 22.1875 86.3988H23.125ZM30.9375 77.1252C30.3125 76.6615 29.5312 76.507 28.75 76.507C26.25 76.507 24.6875 78.3617 24.6875 81.9165C24.6875 85.0077 26.5625 86.7079 28.5937 86.7079C29.2187 86.7079 30 86.5533 30.625 86.0897L30.7813 84.8532H30.625C30.1562 85.4714 29.375 85.9351 28.75 85.9351C27.0312 85.9351 26.25 83.9258 26.25 81.762C26.25 79.7527 26.875 77.4343 28.75 77.4343C29.375 77.4343 30 78.0526 30.4688 78.6708H30.625L30.9375 77.1252ZM36.4062 86.3988C36.4062 85.7805 36.4062 85.7805 36.4062 85.1623C35.625 85.3168 34.8438 85.3169 34.0625 85.3169V81.762H35.1562C35.625 81.762 36.0938 81.762 36.4062 81.9165C36.4062 81.4529 36.4062 81.1437 36.4062 80.6801C35.9375 80.6801 35.4688 80.8346 35.1562 80.8346H34.0625V77.7434H34.2188C35 77.7434 35.625 77.898 36.4062 78.0526C36.4062 77.4343 36.4062 77.4343 36.4062 76.8161H32.5V86.5533H36.4062V86.3988ZM41.875 86.3988C41.875 85.7805 41.875 85.7805 41.875 85.1623C41.0938 85.3168 40.3125 85.3169 39.5312 85.3169V76.6615C38.9062 76.8161 38.4375 76.8161 37.9688 76.6615V86.3988H41.875ZM47.5 86.3988C47.5 85.7805 47.5 85.7805 47.5 85.1623C46.7188 85.3168 45.9375 85.3169 45 85.3169V76.6615C44.375 76.8161 44.0625 76.8161 43.4375 76.6615V86.3988H47.5ZM54.8437 81.1437C54.8437 83.153 54.2187 85.626 52.5 85.626C50.9375 85.626 50.3125 83.7713 50.3125 81.9165C50.3125 79.7527 50.625 77.1252 52.6562 77.1252C54.2188 77.2798 54.8437 79.289 54.8437 81.1437ZM56.4062 81.4529C56.4062 78.2071 54.8438 76.3524 52.6562 76.3524C50.3125 76.3524 48.5938 78.2071 48.5938 81.4529C48.5938 84.6986 50.1562 86.5533 52.5 86.5533C54.6875 86.5533 56.4062 84.6986 56.4062 81.4529ZM67.6562 81.1437C67.6562 83.6167 67.0312 85.4714 65.1562 85.4714H64.375V77.4343H65.3125C66.875 77.4343 67.6562 78.9799 67.6562 81.1437ZM69.2188 81.1437C69.2188 78.5162 68.125 76.507 66.0938 76.507H62.5V86.2442H65.4688C67.8125 86.3988 69.2188 84.2349 69.2188 81.1437ZM75 86.3988C75 85.7805 75 85.7805 75 85.1623C74.2188 85.3168 73.4375 85.3169 72.6562 85.3169V81.762H73.75C74.2188 81.762 74.6875 81.762 75 81.9165C75 81.4529 75 81.1437 75 80.6801C74.5312 80.6801 74.2188 80.8346 73.75 80.8346H72.6562V77.7434H72.9688C73.5938 77.7434 74.375 77.898 75 78.0526V76.8161H71.0938V86.5533H75V86.3988ZM14.6875 96.7543C14.6875 93.6631 11.5625 93.8176 11.5625 91.9629C11.5625 90.881 12.0312 90.5719 12.8125 90.5719C13.4375 90.5719 13.75 91.0356 14.0625 91.8084C14.2188 91.3447 14.2188 90.881 14.375 90.4173C14.0625 89.9536 13.125 89.7991 12.6563 89.7991C11.4063 89.7991 10.3125 90.881 10.3125 92.7357C10.3125 96.136 13.4375 95.3632 13.4375 97.5271C13.4375 98.609 12.8125 99.0726 12.1875 99.0726C11.5625 99.0726 10.9375 98.4544 10.7812 97.5271H10.4688C10.4688 98.1453 10.3125 98.7635 10.1562 99.3818C10.625 99.8455 11.25 100 11.875 100C13.2812 100 14.6875 98.9181 14.6875 96.7543ZM19.375 95.9815H17.5L18.4375 92.5812L19.375 95.9815ZM22.0312 99.8454L19.0625 89.9536C18.9062 89.9536 18.5938 89.9536 18.2812 89.9536L15.3125 99.8454C15.625 99.8454 15.9375 99.8454 16.4062 99.8454C16.5625 98.7635 16.875 97.8362 17.0312 96.9088H19.5312C19.8438 97.8362 20 98.7635 20.3125 99.8454C20.9375 99.6909 21.4062 99.6909 22.0312 99.8454ZM29.8438 99.8454V90.1082C29.5312 90.1082 29.2188 90.1082 29.0625 90.1082V96.7543C27.6562 94.4359 26.0938 92.272 24.6875 90.1082H23.4375V99.8454C23.75 99.8454 23.9062 99.8454 24.2188 99.8454V92.8903C25.7812 95.2087 27.3438 97.5271 28.9062 99.8454H29.8438ZM36.5625 91.1901C36.5625 90.5719 36.5625 90.5719 36.5625 89.9536H31.25V91.1901C31.875 91.0356 32.5 91.0356 33.125 91.0356V99.8454C33.75 99.8454 34.2188 99.8454 34.6875 99.8454V91.0356C35.3125 91.0356 35.9375 91.1901 36.5625 91.1901ZM39.6875 99.8454V90.1082C39.0625 90.1082 38.5938 90.1082 38.125 90.1082V99.8454C38.5938 99.6909 39.0625 99.6909 39.6875 99.8454ZM45 95.9815H43.125L44.0625 92.5812L45 95.9815ZM47.6562 99.8454L44.8438 89.9536C44.5312 89.9536 44.2188 89.9536 44.0625 89.9536L41.0938 99.8454C41.4062 99.8454 41.7188 99.8454 42.0312 99.8454C42.1875 98.7635 42.5 97.8362 42.6562 96.9088H45.1562C45.4688 97.8362 45.7812 98.7635 45.9375 99.8454C46.5625 99.6909 47.0312 99.6909 47.6562 99.8454ZM55.4688 99.2272V95.3632C54.8438 95.3632 54.5312 95.3632 53.9062 95.3632V98.609C53.5938 98.9181 53.125 99.0726 52.8125 99.0726C50.9375 99.0726 50.3125 97.3725 50.3125 95.0541C50.3125 92.8903 50.9375 90.5719 52.8125 90.5719C53.5938 90.5719 54.375 91.0356 54.8437 91.9629H55C55 91.4992 55 91.0356 55.3125 90.5719C54.5313 89.9536 53.5938 89.7991 52.8125 89.7991C50.3125 89.7991 48.5938 91.6538 48.5938 95.2087C48.5938 98.4544 50.4688 100 52.6562 100C53.75 100 54.5312 99.6909 55.4688 99.2272ZM63.125 94.5904C63.125 96.5997 62.5 99.0726 60.7813 99.0726C59.2188 99.0726 58.5938 97.0634 58.5938 95.3632C58.5938 93.1994 58.9062 90.5719 60.9375 90.5719C62.5 90.5719 63.125 92.7357 63.125 94.5904ZM64.8438 94.8995C64.8438 91.6538 63.2812 89.7991 60.9375 89.7991C58.5938 89.7991 56.875 91.6538 56.875 94.8995C56.875 97.9907 58.4375 100 60.7813 100C62.9688 100 64.8438 97.9907 64.8438 94.8995ZM14.8438 70.17L16.0938 21.7929L17.3438 70.17H14.8438Z" fill="#020203"/>
</svg>
