<svg width="231" height="40" viewBox="0 0 231 40" fill="none" xmlns="http://www.w3.org/2000/svg">
<path d="M62.8084 39.5787L59.8577 31.7892H42.9964L40.0456 39.5787H33.0903L45.9471 6.73661L37.3057 5.68398V0.631348H65.9699V5.68398L57.5392 6.73661L70.6068 39.5787H62.8084ZM45.3148 25.4735H57.3285L51.427 8.84187H51.2162L45.3148 25.4735Z" fill="#1E1E1C"/>
<path d="M33.0903 19.9998C33.0903 32.4208 24.4489 39.5787 13.4891 39.5787H0V0.631348H13.4891C24.2381 0.631348 33.0903 7.57872 33.0903 19.9998ZM6.95529 6.73661V33.2629H13.2783C20.0228 33.2629 25.7135 29.0524 25.7135 19.9998C25.7135 11.3682 20.0228 6.73661 13.2783 6.73661H6.95529Z" fill="#1E1E1C"/>
<path d="M87.8897 18.3158H105.805V32.2105C102.433 37.0526 96.7418 40 89.7866 40C77.9836 40 69.553 32.4211 69.553 20C69.553 7.78947 77.7729 0 89.365 0C96.5311 0 102.854 3.57895 105.805 9.89474L99.271 12.6316C97.5849 8.84211 94.0019 6.31579 89.365 6.31579C81.1451 6.31579 76.719 12.2105 76.719 20.2105C76.719 28 81.3559 34.1053 89.7866 34.1053C93.3696 34.1053 96.7418 32.8421 98.6387 30.7368V24.8421H87.8897V18.3158Z" fill="#1E1E1C"/>
<path d="M132.151 9.26349L131.308 7.15823H127.092L126.249 9.26349H125.195L128.568 0.421387H129.832L133.415 9.26349H132.151ZM127.514 6.31612H130.886L129.2 1.89507L127.514 6.31612Z" fill="#1E1E1C"/>
<path d="M135.312 7.36824C135.523 7.99982 135.944 8.42087 136.998 8.42087C137.841 8.42087 138.263 7.99982 138.263 7.57877C138.263 6.94719 137.63 6.73666 136.577 6.52614C135.523 6.31561 134.469 5.89456 134.469 4.84193C134.469 3.57877 135.523 3.15771 136.787 3.15771C138.263 3.15771 139.106 3.99982 139.106 4.84193L138.052 5.26298C138.052 4.84193 137.841 3.99982 136.787 3.99982C136.155 3.99982 135.523 4.21035 135.523 4.84193C135.523 5.4735 136.366 5.4735 137.209 5.68403C138.263 5.89456 139.317 6.31561 139.317 7.57877C139.317 8.84193 138.263 9.4735 136.998 9.4735C135.523 9.4735 134.68 8.6314 134.258 7.78929L135.312 7.36824Z" fill="#1E1E1C"/>
<path d="M146.904 6.31561C146.904 8.21035 145.429 9.4735 143.743 9.4735C142.057 9.4735 140.581 8.21035 140.581 6.31561C140.581 4.42087 142.057 3.15771 143.743 3.15771C145.429 3.15771 146.904 4.42087 146.904 6.31561ZM141.635 6.31561C141.635 7.57877 142.478 8.42087 143.743 8.42087C145.007 8.42087 145.85 7.57877 145.85 6.31561C145.85 5.05245 145.007 4.21035 143.743 4.21035C142.267 3.99982 141.635 5.05245 141.635 6.31561Z" fill="#1E1E1C"/>
<path d="M154.07 7.78929C153.438 8.84193 152.384 9.4735 151.33 9.4735C149.433 9.4735 148.169 8.21035 148.169 6.31561C148.169 4.42087 149.644 3.15771 151.33 3.15771C152.595 3.15771 153.438 3.78929 154.07 4.84193L153.016 5.26298C152.806 4.6314 152.173 4.21035 151.33 4.21035C150.066 4.21035 149.433 5.05245 149.433 6.31561C149.433 7.57877 150.276 8.42087 151.33 8.42087C152.173 8.42087 152.806 7.99982 153.016 7.36824L154.07 7.78929Z" fill="#1E1E1C"/>
<path d="M155.756 0.631348C156.178 0.631348 156.599 1.0524 156.599 1.47345C156.599 1.89451 156.178 2.31556 155.756 2.31556C155.335 2.31556 154.913 1.89451 154.913 1.47345C154.913 1.0524 155.335 0.631348 155.756 0.631348ZM155.335 9.26293V3.15766H156.599V9.26293H155.335Z" fill="#1E1E1C"/>
<path d="M162.079 8.42103C161.658 9.0526 160.815 9.26313 159.972 9.26313C158.918 9.26313 157.864 8.84208 157.864 7.36839C157.864 5.68418 159.55 5.47366 161.447 5.47366C161.658 5.47366 161.869 5.26313 161.869 5.05261C161.869 4.42103 161.447 3.78945 160.393 3.78945C159.339 3.78945 158.918 4.2105 158.707 4.84208L157.653 4.42103C157.864 3.3684 158.918 2.73682 160.393 2.73682C161.658 2.73682 162.922 3.3684 162.922 5.26313V8.84208H161.869L162.079 8.42103ZM160.183 8.42103C161.026 8.42103 161.869 7.99997 161.869 6.94734V6.31576C161.658 6.31576 161.236 6.31576 161.026 6.31576C159.761 6.31576 158.918 6.52629 158.918 7.36839C158.918 8.2105 159.55 8.42103 160.183 8.42103Z" fill="#1E1E1C"/>
<path d="M170.51 7.78929C169.878 8.84193 168.824 9.4735 167.77 9.4735C165.873 9.4735 164.398 8.21035 164.398 6.31561C164.398 4.42087 165.873 3.15771 167.559 3.15771C168.824 3.15771 169.667 3.78929 170.299 4.84193L169.245 5.26298C169.035 4.6314 168.402 4.21035 167.559 4.21035C166.295 4.21035 165.662 5.05245 165.662 6.31561C165.662 7.57877 166.505 8.42087 167.559 8.42087C168.402 8.42087 169.035 7.99982 169.245 7.36824L170.51 7.78929Z" fill="#1E1E1C"/>
<path d="M172.196 0.631348C172.618 0.631348 173.039 1.0524 173.039 1.47345C173.039 1.89451 172.618 2.31556 172.196 2.31556C171.775 2.31556 171.353 1.89451 171.353 1.47345C171.564 1.0524 171.775 0.631348 172.196 0.631348ZM171.775 9.26293V3.15766H172.828V9.26293H171.775Z" fill="#1E1E1C"/>
<path d="M180.838 6.31612C180.838 8.21086 179.362 9.47402 177.676 9.47402C175.99 9.47402 174.515 8.21086 174.515 6.31612C174.515 4.42139 175.99 3.15823 177.676 3.15823C179.362 3.15823 180.838 4.42139 180.838 6.31612ZM175.568 6.31612C175.568 7.57928 176.412 8.42139 177.676 8.42139C178.941 8.42139 179.784 7.57928 179.784 6.31612C179.784 5.05297 178.941 4.21086 177.676 4.21086C176.201 4.00033 175.568 5.05297 175.568 6.31612ZM177.676 0.421387H178.941L177.465 2.1056H176.622L177.676 0.421387Z" fill="#1E1E1C"/>
<path d="M187.582 9.26305H186.318V5.47358C186.318 4.63148 185.896 3.9999 185.053 3.9999C183.999 3.9999 183.156 4.842 183.156 5.68411V9.26305H181.891V3.15779H182.945L183.367 4.21042C183.999 3.36832 184.631 2.94727 185.475 2.94727C186.739 2.94727 187.582 3.78937 187.582 5.47358V9.26305Z" fill="#1E1E1C"/>
<path d="M196.013 4.63135H200.017V7.57872C199.174 8.84187 197.91 9.47345 196.434 9.47345C193.905 9.47345 192.008 7.57872 192.008 5.0524C192.008 2.31556 193.905 0.631348 196.434 0.631348C198.12 0.631348 199.596 1.47345 200.017 2.94714L198.963 3.36819C198.542 2.52608 197.699 1.68398 196.434 1.68398C194.537 1.68398 193.273 3.15766 193.273 5.26293C193.273 7.36819 194.537 8.84187 196.434 8.84187C197.488 8.84187 198.542 8.42082 198.963 7.57872V5.68398H196.013V4.63135Z" fill="#1E1E1C"/>
<path d="M205.497 8.42103C205.076 9.0526 204.233 9.26313 203.39 9.26313C202.336 9.26313 201.282 8.84208 201.282 7.36839C201.282 5.68418 202.968 5.47366 204.865 5.47366C205.076 5.47366 205.286 5.26313 205.286 5.05261C205.286 4.42103 204.865 3.78945 203.811 3.78945C202.757 3.78945 202.336 4.2105 202.125 4.84208L201.071 4.42103C201.282 3.3684 202.336 2.73682 203.811 2.73682C205.076 2.73682 206.34 3.3684 206.34 5.26313V8.84208H205.286L205.497 8.42103ZM203.6 8.42103C204.443 8.42103 205.286 7.99997 205.286 6.94734V6.31576C205.076 6.31576 204.654 6.31576 204.443 6.31576C203.179 6.31576 202.336 6.52629 202.336 7.36839C202.336 8.2105 202.968 8.42103 203.6 8.42103Z" fill="#1E1E1C"/>
<path d="M209.502 0.421387H208.237V9.26349H209.502V0.421387Z" fill="#1E1E1C"/>
<path d="M216.879 7.78929C216.246 8.84193 215.192 9.4735 213.928 9.4735C212.242 9.4735 210.766 8.21035 210.766 6.31561C210.766 4.42087 212.242 3.15771 213.928 3.15771C215.614 3.15771 216.879 4.21035 216.879 6.10508C216.879 6.31561 216.879 6.52614 216.879 6.73666H212.031C212.242 7.99982 213.085 8.6314 213.928 8.6314C214.56 8.6314 215.403 8.42087 215.825 7.57877L216.879 7.78929ZM215.614 5.68403C215.614 4.42087 214.771 3.99982 213.717 3.99982C212.874 3.99982 211.82 4.6314 211.82 5.68403H215.614Z" fill="#1E1E1C"/>
<path d="M219.408 10.5262C219.829 10.9473 220.672 11.1578 221.305 11.1578C222.359 11.1578 223.202 10.7367 223.202 9.26306V8.21042C222.78 9.05253 221.937 9.26306 220.883 9.26306C219.197 9.26306 217.932 7.9999 217.932 6.10516C217.932 4.21042 219.197 2.94727 220.883 2.94727C221.937 2.94727 222.78 3.36832 223.202 4.21042L223.412 3.15779H224.466V9.05253C224.466 11.3683 222.78 11.9999 221.305 11.9999C220.462 11.9999 219.408 11.7894 218.776 11.1578L219.408 10.5262ZM223.202 6.31569C223.202 5.05253 222.359 4.21042 221.094 4.21042C219.829 4.21042 219.197 5.26306 219.197 6.31569C219.197 7.57885 219.829 8.42095 221.094 8.42095C222.359 8.42095 223.202 7.57885 223.202 6.31569Z" fill="#1E1E1C"/>
<path d="M229.946 8.42103C229.525 9.0526 228.682 9.26313 227.838 9.26313C226.785 9.26313 225.731 8.84208 225.731 7.36839C225.731 5.68418 227.417 5.47366 229.314 5.47366C229.525 5.47366 229.735 5.26313 229.735 5.05261C229.735 4.42103 229.314 3.78945 228.26 3.78945C227.206 3.78945 226.785 4.2105 226.574 4.84208L225.52 4.42103C225.731 3.3684 226.785 2.73682 228.26 2.73682C229.525 2.73682 230.789 3.3684 230.789 5.26313V8.84208H229.735L229.946 8.42103ZM228.049 8.42103C228.892 8.42103 229.735 7.99997 229.735 6.94734V6.31576C229.525 6.31576 229.103 6.31576 228.892 6.31576C227.628 6.31576 226.785 6.52629 226.785 7.36839C226.995 8.2105 227.417 8.42103 228.049 8.42103Z" fill="#1E1E1C"/>
<path d="M131.94 23.5789H130.886L130.675 22.5263C130.254 23.3684 129.411 23.7894 128.357 23.7894C126.671 23.7894 125.406 22.5263 125.406 20.6316C125.406 18.7368 126.671 17.4737 128.357 17.4737C129.411 17.4737 130.043 17.8947 130.675 18.7368V14.7368H131.94V23.5789ZM126.671 20.421C126.671 21.6842 127.303 22.5263 128.778 22.5263C130.043 22.5263 130.886 21.6842 130.886 20.421C130.886 19.1579 130.043 18.3158 128.778 18.3158C127.514 18.3158 126.671 19.1579 126.671 20.421Z" fill="#1E1E1C"/>
<path d="M139.317 21.8948C138.684 22.9474 137.63 23.579 136.366 23.579C134.68 23.579 133.204 22.3158 133.204 20.4211C133.204 18.5263 134.68 17.2632 136.366 17.2632C138.052 17.2632 139.317 18.3158 139.317 20.2106C139.317 20.4211 139.317 20.6316 139.317 20.8421H134.469C134.68 22.1053 135.523 22.7369 136.366 22.7369C136.998 22.7369 137.841 22.5263 138.263 21.6842L139.317 21.8948ZM138.263 20C138.263 18.7369 137.42 18.3158 136.366 18.3158C135.523 18.3158 134.469 18.9474 134.469 20H138.263Z" fill="#1E1E1C"/>
<path d="M151.12 19.1579C151.12 21.6842 149.223 23.5789 146.904 23.5789H143.953V14.7368H146.904C149.223 14.7368 151.12 16.421 151.12 19.1579ZM145.218 15.7894V22.5263H146.904C148.59 22.5263 150.066 21.2631 150.066 19.1579C150.066 17.0526 148.801 15.7894 146.904 15.7894H145.218Z" fill="#1E1E1C"/>
<path d="M158.496 21.8948C157.864 22.9474 156.81 23.579 155.546 23.579C153.86 23.579 152.384 22.3158 152.384 20.4211C152.384 18.5263 153.86 17.2632 155.546 17.2632C157.232 17.2632 158.496 18.3158 158.496 20.2106C158.496 20.4211 158.496 20.6316 158.496 20.8421H153.649C153.86 22.1053 154.703 22.7369 155.546 22.7369C156.178 22.7369 157.021 22.5263 157.443 21.6842L158.496 21.8948ZM157.443 20C157.443 18.7369 156.599 18.3158 155.546 18.3158C154.703 18.3158 153.649 18.9474 153.649 20H157.443Z" fill="#1E1E1C"/>
<path d="M160.604 21.4737C160.815 22.1053 161.236 22.5263 162.29 22.5263C163.133 22.5263 163.555 22.1053 163.555 21.6842C163.555 21.0527 162.922 20.8421 161.869 20.6316C160.815 20.4211 159.761 20 159.761 18.9474C159.761 17.6842 160.815 17.2632 162.079 17.2632C163.555 17.2632 164.398 18.1053 164.398 18.9474L163.344 19.3684C163.344 18.9474 163.133 18.1053 162.079 18.1053C161.447 18.1053 160.815 18.3158 160.815 18.9474C160.815 19.579 161.658 19.579 162.501 19.7895C163.555 20 164.609 20.4211 164.609 21.6842C164.609 22.9474 163.555 23.579 162.29 23.579C160.815 23.579 159.972 22.7369 159.55 21.8948L160.604 21.4737Z" fill="#1E1E1C"/>
<path d="M171.775 21.8948C171.142 22.9474 170.088 23.579 168.824 23.579C167.138 23.579 165.662 22.3158 165.662 20.4211C165.662 18.5263 167.138 17.2632 168.824 17.2632C170.51 17.2632 171.775 18.3158 171.775 20.2106C171.775 20.4211 171.775 20.6316 171.775 20.8421H166.927C167.138 22.1053 167.981 22.7369 168.824 22.7369C169.456 22.7369 170.299 22.5263 170.721 21.6842L171.775 21.8948ZM170.721 20C170.721 18.7369 169.878 18.3158 168.824 18.3158C167.981 18.3158 166.927 18.9474 166.927 20H170.721Z" fill="#1E1E1C"/>
<path d="M178.73 23.5789H177.465V19.7894C177.465 18.9473 177.044 18.3158 176.201 18.3158C175.147 18.3158 174.304 19.1579 174.304 20V23.5789H173.039V17.4737H174.093L174.304 18.5263C174.936 17.6842 175.568 17.2631 176.411 17.2631C177.676 17.2631 178.519 18.1052 178.519 19.7894V23.5789H178.73ZM175.147 15.5789C174.725 15.5789 174.725 15.7894 174.725 16.2105H174.093C174.093 15.3684 174.515 14.7368 175.358 14.7368C176.201 14.7368 176.622 15.5789 177.044 15.5789C177.255 15.5789 177.465 15.3684 177.465 14.9473H178.098C178.098 15.5789 177.887 16.421 176.833 16.421C175.99 16.421 175.779 15.5789 175.147 15.5789Z" fill="#1E1E1C"/>
<path d="M186.528 20.4211C186.528 22.3158 185.053 23.579 183.367 23.579C181.681 23.579 180.205 22.3158 180.205 20.4211C180.205 18.5263 181.681 17.2632 183.367 17.2632C185.053 17.2632 186.528 18.5263 186.528 20.4211ZM181.259 20.4211C181.259 21.6842 182.102 22.5263 183.367 22.5263C184.631 22.5263 185.474 21.6842 185.474 20.4211C185.474 19.1579 184.631 18.3158 183.367 18.3158C182.102 18.3158 181.259 19.1579 181.259 20.4211Z" fill="#1E1E1C"/>
</svg>
