<svg width="111" height="19" viewBox="0 0 166 28" fill="none" xmlns="http://www.w3.org/2000/svg">
<path d="M35.1238 27.2784H61.9403V0.72165H35.1238V27.2784ZM62.669 28H34.3951V0H62.669V28Z" fill="#020203"/>
<path d="M50.7182 19.7732V8.22678V4.18555H46.3459V23.8144H50.7182V19.7732Z" fill="#020203"/>
<path d="M69.6646 27.2784H96.4811V0.72165H69.6646V27.2784ZM97.2098 28H68.9359V0H97.2098V28Z" fill="#020203"/>
<path d="M78.2634 19.7732V8.22678V4.18555H73.8911V23.8144H78.2634V19.7732Z" fill="#020203"/>
<path d="M80.4495 4.18555H79.8666V8.22678H80.8868C84.5303 8.22678 87.7366 9.95874 87.7366 13.8556C87.7366 18.3299 84.6761 19.7732 80.5953 19.7732H79.8666V23.8144H81.0325C87.0079 23.8144 92.1089 20.3505 92.1089 14C92.1089 6.92781 86.8622 4.18555 80.4495 4.18555Z" fill="#020203"/>
<path d="M115.282 15.4432L116.739 11.6906L115.136 6.20605L107.557 23.3813H112.221L113.679 19.3401L115.136 15.4432H115.282Z" fill="#020203"/>
<path d="M119.217 4.61816H115.719L117.322 10.247L119.654 15.8759H116.156L114.845 19.3398H121.111L122.715 23.3811H127.378L119.217 4.61816Z" fill="#020203"/>
<path d="M104.06 27.2784H130.876V0.72165H104.06V27.2784ZM131.605 28H103.331V0H131.605V28Z" fill="#020203"/>
<path d="M147.782 13.4227C148.074 10.2474 150.26 7.93812 153.175 7.93812C154.778 7.93812 155.944 8.51544 156.673 9.52575L159.879 6.92782C158.276 4.9072 155.652 4.18555 153.466 4.18555C147.782 4.18555 143.556 7.79379 143.264 13.4227H147.782Z" fill="#020203"/>
<path d="M153.029 20.0617C150.114 20.0617 147.928 17.7524 147.782 14.5771H143.41C143.702 20.206 147.782 23.8143 153.612 23.8143C156.235 23.8143 158.859 22.804 160.462 20.639L156.964 18.0411C156.09 19.34 154.778 20.0617 153.029 20.0617Z" fill="#020203"/>
<path d="M138.601 27.2784H165.417V0.72165H138.601V27.2784ZM166 28H137.726V0H166V28Z" fill="#020203"/>
<path d="M9.32752 19.7732V8.22678V4.18555H4.95526V23.8144H9.32752V19.7732Z" fill="#020203"/>
<path d="M11.5136 4.18555H10.9307V8.22678H11.9509C15.5944 8.22678 18.8007 9.95874 18.8007 13.8556C18.8007 18.3299 15.7401 19.7732 11.6594 19.7732H10.9307V23.8144H12.0966C18.072 23.8144 23.173 20.3505 23.173 14C23.3187 6.92781 17.9263 4.18555 11.5136 4.18555Z" fill="#020203"/>
<path d="M0.728709 27.2784H27.5452V0.72165H0.728709V27.2784ZM28.2739 28H0V0H28.2739V28Z" fill="#020203"/>
</svg>
