<svg width="47" height="44" viewBox="0 0 70 66" fill="none" xmlns="http://www.w3.org/2000/svg">
<path d="M22.9098 24.0693C23.3333 24.7975 23.8724 25.4107 24.5654 25.8707C25.22 26.3306 25.9901 26.6755 26.8757 26.9055C27.7613 27.1355 28.6468 27.2504 29.6094 27.2504C30.264 27.2504 30.9956 27.1738 31.7271 27.0205C32.4587 26.8672 33.1518 26.5989 33.7293 26.2923C34.3454 25.9473 34.846 25.5257 35.231 24.9508C35.616 24.3759 35.8471 23.686 35.8471 22.8428C35.8471 21.4247 34.8845 20.3515 32.9978 19.6233C31.1111 18.895 28.4543 18.2051 25.066 17.4769C23.6798 17.1703 22.3322 16.787 21.0231 16.3654C20.2915 16.1355 19.6369 15.8672 19.0209 15.5605V21.4247H22.3322C22.2937 22.4595 22.4862 23.3027 22.9098 24.0693Z" fill="black"/>
<path d="M40.0055 0C40.5061 0.383275 41.0066 0.766551 41.4302 1.22648C41.7382 1.5331 42.0077 1.87805 42.2773 2.223C42.4313 2.45296 42.6238 2.6446 42.7778 2.87456C42.9318 3.0662 43.0473 3.29617 43.1628 3.52613C43.5479 4.25436 43.8559 5.02091 44.0484 5.90244C44.2024 6.59233 44.318 7.32056 44.395 8.12544H35.3851C35.3081 6.97561 35 6.05575 34.461 5.36585C34.1529 4.98258 33.7679 4.67596 33.3059 4.40767C33.1133 4.33101 32.9593 4.25436 32.7668 4.13937C31.6117 3.7561 30.3411 3.52613 28.8779 3.52613C28.5314 3.52613 28.1848 3.52613 27.7998 3.56446C27.5688 3.56446 27.3378 3.60279 27.1067 3.60279C26.4907 3.67944 25.9131 3.79443 25.4126 4.02439C25.3741 4.02439 25.3356 4.06272 25.2971 4.10105C24.835 4.33101 24.45 4.63763 24.1034 5.02091C23.7569 5.44251 23.5644 6.01742 23.5644 6.70732C23.5644 7.55052 23.8724 8.24042 24.4885 8.777C24.604 8.85366 24.7195 8.96864 24.835 9.0453C25.2585 9.35192 25.7591 9.62021 26.3367 9.85017C26.5292 9.92683 26.7217 10.0035 26.9142 10.0801C27.2993 10.1951 27.7228 10.3484 28.1463 10.4634C28.6084 10.5784 29.1089 10.6934 29.6095 10.8467C29.879 10.885 30.11 10.9617 30.3796 11C30.7261 11.0767 31.0726 11.1533 31.4192 11.23C32.1122 11.3833 32.8053 11.5366 33.4984 11.6899C33.7679 11.7666 34.0374 11.8049 34.307 11.8815C34.5765 11.9582 34.8845 11.9965 35.154 12.0732C36.2321 12.3415 37.3103 12.6481 38.3884 12.993C39.0429 13.223 39.6205 13.453 40.198 13.7596C40.8141 14.0662 41.3532 14.4111 41.8922 14.7561C42.1617 14.9477 42.3928 15.1394 42.6238 15.331C43.3169 15.9443 43.8944 16.6725 44.3565 17.4774C44.395 17.554 44.4335 17.5923 44.472 17.669C45.0495 18.7422 45.3191 20.007 45.3191 21.5401C45.3191 23.8014 44.857 25.7178 43.9329 27.2509C43.7019 27.6341 43.4709 27.9791 43.2398 28.2857C42.9703 28.6307 42.7008 28.9756 42.3928 29.2822C41.7767 29.9338 41.0836 30.4704 40.3521 30.9686C39.274 31.6202 38.1188 32.1568 36.8482 32.5401C36.3477 32.6934 35.8471 32.8084 35.3081 32.9233C34.846 33 34.384 33.115 33.9219 33.1533C33.4214 33.23 32.8823 33.3066 32.3818 33.3449C31.4577 33.4216 30.4951 33.4983 29.5325 33.4983C27.5303 33.4983 25.5666 33.3066 23.6414 32.885C21.9087 32.5401 20.3686 31.9268 18.9824 31.122V66H70V0H40.0055Z" fill="black"/>
<path d="M13.7459 62.55C14.0154 62.3967 14.2079 62.2051 14.3619 61.9751C14.516 61.7451 14.6315 61.4769 14.7085 61.1702C14.7855 60.8636 14.824 60.557 14.824 60.212C14.824 59.9821 14.7855 59.7138 14.747 59.4838C14.7085 59.2155 14.593 58.9856 14.4774 58.7939C14.3619 58.564 14.2079 58.4106 14.0154 58.2573C13.8229 58.104 13.5919 58.0657 13.2838 58.0657C12.7833 58.0657 12.3982 58.4106 12.1672 59.0622C11.8977 59.7138 11.6667 60.6336 11.4356 61.8218C11.3201 62.3201 11.2046 62.78 11.0506 63.2399C10.8966 63.6998 10.7041 64.1214 10.473 64.4664C10.242 64.8113 9.93399 65.118 9.54895 65.3479C9.16392 65.5779 8.74037 65.6929 8.20132 65.6929C7.43124 65.6929 6.77668 65.5396 6.27613 65.2329C5.77558 64.9263 5.39054 64.5431 5.08251 64.0448C4.77448 63.5465 4.58196 62.9716 4.46645 62.3584C4.35093 61.7451 4.27393 61.0936 4.27393 60.442C4.27393 59.7904 4.35093 59.1389 4.46645 58.5256C4.58196 57.9124 4.81298 57.3758 5.08251 56.8775C5.39054 56.3793 5.77558 55.996 6.27613 55.6894C6.77668 55.3828 7.39274 55.1911 8.12431 55.1145V58.2573C7.46975 58.2957 7.0462 58.564 6.81518 58.9856C6.58416 59.4072 6.46865 59.9437 6.46865 60.5187C6.46865 60.7103 6.46865 60.9019 6.50715 61.1319C6.54565 61.3619 6.58416 61.5535 6.66116 61.7451C6.73817 61.9368 6.85368 62.0901 7.0077 62.2051C7.16172 62.3201 7.35423 62.3967 7.62376 62.3967C7.93179 62.3967 8.16282 62.2817 8.35533 62.0518C8.54785 61.8218 8.70187 61.5535 8.81738 61.2086C8.93289 60.8636 9.0484 60.442 9.12541 60.0204C9.20242 59.5605 9.31793 59.1005 9.43344 58.6406C9.54895 58.1424 9.66447 57.6824 9.81848 57.2225C9.9725 56.7626 10.165 56.341 10.4345 55.996C10.7041 55.6511 11.0121 55.3444 11.3971 55.1145C11.7822 54.8845 12.2442 54.7695 12.8218 54.7695C13.6304 54.7695 14.2849 54.9228 14.824 55.2295C15.363 55.5361 15.7866 55.9577 16.1331 56.4943C16.4411 56.9925 16.6722 57.6058 16.8262 58.2573C16.9417 58.9089 17.0187 59.5988 17.0187 60.2887C17.0187 60.9786 16.9417 61.6685 16.7877 62.3584C16.6337 63.0099 16.4026 63.6232 16.0946 64.1598C15.7481 64.6964 15.3245 65.118 14.7855 65.4629C14.2464 65.8079 13.5534 65.9995 12.7448 65.9995V62.8566C13.1683 62.78 13.4763 62.7033 13.7459 62.55Z" fill="black"/>
<path d="M13.8614 50.0553C14.3619 49.5571 14.593 48.8288 14.593 47.909C14.593 47.2574 14.4389 46.6825 14.0924 46.1842C13.7459 45.686 13.3993 45.4177 13.0143 45.3027V42.3898C14.4774 42.8497 15.5171 43.578 16.1331 44.5362C16.7492 45.4943 17.0572 46.6825 17.0572 48.024C17.0572 48.9821 16.9032 49.8253 16.5952 50.5919C16.2871 51.3584 15.8636 52.01 15.286 52.5466C14.7085 53.0832 14.0539 53.5048 13.2838 53.7731C12.5138 54.0797 11.6282 54.1947 10.7041 54.1947C9.77998 54.1947 8.9714 54.0414 8.16282 53.7348C7.39274 53.4281 6.69967 53.0065 6.12211 52.4699C5.54455 51.9334 5.08251 51.2818 4.77448 50.5152C4.42794 49.7487 4.27393 48.9055 4.27393 47.9856C4.27393 46.9508 4.46644 46.0693 4.88999 45.3027C5.27503 44.5362 5.81408 43.9229 6.50715 43.4247C7.16171 42.9264 7.93179 42.5814 8.81738 42.3515C9.66446 42.1215 10.5886 42.0449 11.5126 42.1215V50.8219C12.5908 50.8219 13.3608 50.5536 13.8614 50.0553ZM7.46975 46.2992C7.0462 46.6825 6.81518 47.2957 6.81518 48.1006C6.81518 48.6372 6.89219 49.0588 7.08471 49.4037C7.27723 49.7487 7.46975 50.017 7.73927 50.247C8.0088 50.4386 8.27833 50.5919 8.58636 50.7069C8.89439 50.7835 9.16391 50.8602 9.39494 50.8602V45.456C8.54785 45.6476 7.89329 45.9159 7.46975 46.2992Z" fill="black"/>
<path d="M4.62053 38.0595H6.89226V38.0212C6.50722 37.8679 6.16068 37.6379 5.85265 37.4079C5.54462 37.1396 5.2751 36.833 5.04407 36.4881C4.81305 36.1431 4.62053 35.7982 4.50502 35.3766C4.38951 34.9933 4.3125 34.5717 4.3125 34.1501C4.3125 33.9201 4.351 33.6902 4.42801 33.4219H7.50832C7.46982 33.5752 7.43131 33.7668 7.43131 33.9968C7.39281 34.2268 7.39281 34.4184 7.39281 34.61C7.39281 35.2233 7.50832 35.7215 7.70084 36.1431C7.89336 36.5647 8.16289 36.9097 8.54792 37.178C8.89446 37.4463 9.318 37.6379 9.78005 37.7146C10.2421 37.8295 10.7426 37.8679 11.3202 37.8679H16.7877V41.2024H4.62053V38.0595Z" fill="black"/>
<path d="M2.73377 32.5015H0V29.167H2.73377V32.5015ZM3.23432 29.167H16.7492V32.5015H3.23432V29.167Z" fill="black"/>
<path d="M16.7492 24.9893H0V28.3238H16.7492V24.9893Z" fill="black"/>
<path d="M16.7492 15.8294H15.055V15.906C15.7481 16.3276 16.2486 16.8642 16.5952 17.5541C16.9032 18.2057 17.0572 18.8956 17.0572 19.6238C17.0572 20.5053 16.9417 21.2336 16.7107 21.8085C16.4797 22.3834 16.1331 22.8433 15.7096 23.1499C15.286 23.4949 14.747 23.7249 14.1309 23.8398C13.5149 23.9548 12.8218 24.0315 12.0902 24.0315H4.62048V20.697H11.4742C12.4753 20.697 13.2068 20.5437 13.7074 20.237C14.2079 19.9304 14.439 19.3555 14.439 18.589C14.439 17.6691 14.1694 17.0175 13.6304 16.6343C13.0913 16.2127 12.2057 16.021 10.9736 16.021H4.62048V12.6865H16.7492V15.8294Z" fill="black"/>
<path d="M6.39171 10.8467C5.89116 10.5017 5.46762 10.0801 5.15958 9.54356C4.85155 9.00697 4.62053 8.43206 4.50502 7.74216C4.38951 7.09059 4.3125 6.4007 4.3125 5.74913C4.3125 5.13589 4.351 4.52265 4.42801 3.90941C4.50502 3.29617 4.69754 2.72125 4.92856 2.18467C5.19809 1.68641 5.54462 1.26481 5.96817 0.919861C6.43021 0.574913 7.00777 0.421603 7.73934 0.421603H14.054C14.593 0.421603 15.1321 0.383275 15.6326 0.344948C16.1332 0.268293 16.5182 0.191638 16.7492 0V3.37282C16.5567 3.44948 16.4027 3.48781 16.1717 3.52613C15.9792 3.56446 15.7866 3.60279 15.5556 3.60279C16.0947 4.13937 16.4797 4.75261 16.7107 5.48084C16.9418 6.20906 17.0573 6.93728 17.0573 7.66551C17.0573 8.24042 16.9803 8.777 16.8263 9.27526C16.6722 9.77352 16.4797 10.1951 16.1717 10.5784C15.8637 10.9617 15.5171 11.23 15.0551 11.4599C14.593 11.6899 14.054 11.7666 13.4379 11.7666C12.7448 11.7666 12.1673 11.6516 11.7437 11.4216C11.2817 11.1916 10.9352 10.885 10.6656 10.5017C10.3961 10.1185 10.2036 9.69687 10.0496 9.19861C9.93406 8.70035 9.81855 8.20209 9.74154 7.70383C9.66454 7.20558 9.58753 6.70732 9.54902 6.24739C9.51052 5.74913 9.43351 5.32753 9.3565 4.98258C9.2795 4.5993 9.12548 4.33101 8.93296 4.10105C8.74044 3.87108 8.50942 3.79443 8.16289 3.79443C7.81635 3.79443 7.50832 3.83275 7.3158 3.98606C7.12328 4.10105 6.93076 4.25436 6.81525 4.44599C6.69974 4.63763 6.62273 4.8676 6.58423 5.13589C6.54572 5.32753 6.54572 5.59582 6.54572 5.90244C6.54572 6.55401 6.69974 7.05227 6.96927 7.43554C7.23879 7.81882 7.73934 8.01045 8.39391 8.08711V11.4216C7.58533 11.3833 6.93076 11.1916 6.39171 10.8467ZM11.1277 4.29268C11.2047 4.48432 11.2432 4.71429 11.3202 4.98258C11.3587 5.21254 11.3972 5.48084 11.4357 5.74913C11.4742 6.01742 11.5127 6.28572 11.5512 6.55401C11.5897 6.8223 11.6667 7.05227 11.7437 7.28223C11.8208 7.5122 11.9363 7.74216 12.0518 7.89547C12.1673 8.08711 12.3598 8.20209 12.5523 8.31707C12.7448 8.43206 13.0144 8.47038 13.3224 8.47038C13.6304 8.47038 13.8615 8.43206 14.0925 8.31707C14.285 8.20209 14.439 8.04878 14.593 7.85714C14.7085 7.66551 14.7855 7.43554 14.8241 7.20558C14.8626 6.93728 14.9011 6.70732 14.9011 6.43902C14.9011 5.78746 14.7855 5.2892 14.5545 4.90592C14.3235 4.56098 14.0925 4.29268 13.7844 4.10105C13.4764 3.94774 13.1684 3.83275 12.8604 3.79443C12.5523 3.7561 12.2828 3.7561 12.1288 3.7561H10.8967C10.9352 3.90941 11.0507 4.06272 11.1277 4.29268Z" fill="black"/>
</svg>
