<svg width="113" height="30" viewBox="0 0 169 45" fill="none" xmlns="http://www.w3.org/2000/svg">
<path d="M61.2237 20.7583H48.9507V17.9719H58.1202V17.2753C58.1202 13.653 56.0042 11.5632 52.3364 11.5632C51.0668 11.5632 49.7972 11.8419 48.9507 12.3991V9.19481C49.9382 8.77686 51.0668 8.63754 52.3364 8.63754C57.5559 8.63754 61.2237 11.9812 61.2237 17.2753V20.7583ZM12.273 25.0772V28.2815C9.87479 29.5354 8.32304 30.0926 6.06594 30.0926C2.39816 30.0926 0 27.7242 0 24.2413C0 20.0617 3.24457 17.9719 7.47663 17.9719H12.273V20.7583H7.75876C4.23205 20.7583 3.24457 22.4301 3.24457 24.1019C3.24457 25.9131 4.37312 27.0276 6.34808 27.0276C8.0409 27.0276 9.45158 26.6097 10.8623 25.7738L12.273 25.0772ZM88.3088 29.814H85.9107C81.3965 29.814 78.434 27.4456 78.434 22.7087V11.8419H74.7663V8.91618H78.293V3.2041H81.5376V22.5694C81.5376 25.7738 82.9482 26.8883 85.9107 26.8883H88.1678V29.814H88.3088ZM128.937 28.9781V24.1019C128.937 18.9471 115.253 23.5447 115.253 14.9069C115.253 11.1453 118.215 8.63754 123.576 8.63754C129.078 8.63754 131.899 11.4239 131.899 15.3248V15.4642H128.654C128.654 12.6778 126.821 11.4239 123.435 11.4239C120.049 11.4239 118.356 12.8171 118.356 14.6282C118.356 20.4796 132.04 15.3248 132.04 23.684C132.181 26.0524 131.053 27.8635 128.937 28.9781Z" fill="black"/>
<path d="M106.789 28.4211V17.5542C106.789 13.7926 104.391 11.5635 100.723 11.5635C97.1962 11.5635 94.657 13.6533 94.657 17.5542V21.3158C94.657 25.0774 97.0551 27.3065 100.723 27.3065C102.134 27.3065 103.262 27.0279 104.25 26.3313V29.6749C103.121 29.9536 101.993 30.2322 100.723 30.2322C95.3623 30.2322 91.5535 26.8885 91.5535 21.5944V17.1362C91.5535 11.9814 95.5034 8.49845 100.723 8.49845C106.084 8.49845 109.892 11.8421 109.892 17.1362V21.5944C109.892 24.5201 108.764 26.8885 106.789 28.4211ZM18.0568 29.8142H14.8122V16.5789C14.8122 13.096 12.8373 11.4241 9.45164 11.4241C5.78386 11.4241 3.66784 12.9567 3.66784 16.0217H0.564331V15.8824C0.564331 11.2848 4.23211 8.63777 9.45164 8.63777C14.9533 8.63777 18.0568 11.5635 18.0568 16.4396V29.8142ZM41.051 29.8142H37.2421L21.8657 8.91641H25.8156L31.4583 16.8576L37.1011 8.91641H40.9099L33.4333 19.226L41.051 29.8142ZM61.2238 23.4056V23.5449C61.2238 27.4458 57.8381 30.2322 52.4775 30.2322C47.258 30.2322 43.4491 27.3065 43.4491 22.4303V17.4149C43.4491 14.4892 44.5777 12.1207 46.5526 10.7276V22.291C46.5526 25.9133 49.0919 27.5851 52.4775 27.5851C56.0042 27.5851 58.1203 26.3313 58.1203 23.6842H61.2238V23.4056ZM70.5343 29.8142H67.2897V8.91641H70.5343V29.8142ZM88.0268 11.8421H84.0769V8.91641H88.0268V11.8421ZM126.538 26.8885V29.8142C125.551 29.9536 124.705 30.0929 123.576 30.0929C118.074 30.0929 114.83 27.3065 114.83 23.4056V23.2663H118.215C118.215 26.0526 120.19 27.3065 123.717 27.3065C124.705 27.1672 125.692 27.1672 126.538 26.8885ZM70.8164 1.81115V2.50774C70.8164 3.62229 69.97 4.31889 68.8415 4.31889C67.7129 4.31889 66.8665 3.62229 66.8665 2.50774V1.81115C66.8665 0.696594 67.7129 0 68.8415 0C69.97 0 70.8164 0.696594 70.8164 1.81115ZM25.5334 29.8142H21.7246L27.9316 21.3158L29.7655 23.8235L25.5334 29.8142Z" fill="black"/>
<path fill-rule="evenodd" clip-rule="evenodd" d="M148.404 27.585C148.404 28.003 148.263 28.421 148.122 28.8389C147.981 29.2569 147.699 29.5355 147.417 29.8142C147.134 30.0928 146.711 30.2321 146.147 30.2321C145.865 30.2321 145.724 30.2321 145.442 30.0928C145.159 29.9535 145.018 29.8142 144.736 29.6748C144.454 29.5355 144.172 29.1176 143.749 28.6996C143.185 29.1176 142.761 29.5355 142.197 29.8142C141.633 30.0928 141.21 30.2321 140.645 30.2321C140.081 30.2321 139.517 30.0928 139.094 29.8142C138.67 29.5355 138.247 29.2569 138.106 28.8389C137.824 28.421 137.683 28.003 137.683 27.4457C137.683 27.1671 137.683 26.8885 137.824 26.4705C137.965 26.1919 138.106 25.7739 138.529 25.3559C138.952 24.938 139.376 24.52 140.081 24.1021C139.799 23.6841 139.658 23.2662 139.517 22.8482C139.376 22.4303 139.376 22.1516 139.376 21.7337C139.376 21.3157 139.517 21.0371 139.658 20.6191C139.799 20.3405 139.94 20.0618 140.222 19.9225C140.504 19.7832 140.786 19.6439 141.069 19.5046C141.351 19.3652 141.633 19.3652 141.915 19.3652C142.338 19.3652 142.761 19.5046 143.043 19.6439C143.326 19.7832 143.608 20.0618 143.89 20.3405C144.031 20.6191 144.172 21.0371 144.172 21.3157C144.172 21.7337 144.031 22.1516 143.749 22.5696C143.467 22.9875 142.902 23.4055 142.338 23.6841L144.736 26.7491C145.018 26.3312 145.301 26.0525 145.442 25.6346C145.724 25.2166 145.724 24.938 145.724 24.52C145.724 24.3807 145.724 24.2414 145.583 24.1021C145.442 23.9628 145.301 23.8234 144.877 23.8234V23.1268H148.122V23.8234C147.84 23.8234 147.558 23.9628 147.417 24.1021C147.276 24.2414 147.134 24.3807 146.993 24.52C146.852 24.6594 146.57 25.0773 146.288 25.4953L146.006 26.0525C145.724 26.4705 145.442 26.8885 145.159 27.1671C145.442 27.5851 145.724 27.8637 146.006 28.1423C146.288 28.421 146.711 28.5603 146.993 28.5603C147.134 28.5603 147.276 28.5603 147.417 28.421C147.558 28.2816 147.699 28.1423 147.699 28.003C147.84 27.8637 147.84 27.5851 147.84 27.3064H148.404V27.585ZM142.761 21.3157C142.761 21.0371 142.761 20.8977 142.62 20.7584C142.479 20.6191 142.479 20.4798 142.197 20.3405C142.056 20.2011 141.774 20.2011 141.633 20.2011C141.351 20.2011 141.069 20.3405 140.927 20.4798C140.786 20.7584 140.645 20.8977 140.645 21.1764C140.645 21.7337 140.927 22.4303 141.492 23.2662C141.915 22.9875 142.197 22.7089 142.479 22.4303C142.62 22.1516 142.761 21.7337 142.761 21.3157ZM143.043 28.2816L140.222 24.7987C139.376 25.2166 139.094 25.7739 139.094 26.4705C139.094 26.8885 139.235 27.3064 139.376 27.585C139.517 28.003 139.799 28.2816 140.222 28.5603C140.504 28.8389 140.927 28.9782 141.351 28.9782C141.633 28.9782 141.915 28.9782 142.197 28.8389C142.62 28.5603 142.902 28.421 143.043 28.2816Z" fill="black"/>
<path d="M159.69 29.9531H158.984C158.843 29.5352 158.702 29.1172 158.42 28.6993C157.997 29.1172 157.573 29.3959 157.009 29.8138C156.445 30.0925 155.74 30.2318 154.893 30.2318C153.906 30.2318 153.059 29.9531 152.213 29.5352C151.366 29.1172 150.802 28.4206 150.238 27.5847C149.815 26.7488 149.533 25.7736 149.533 24.7983C149.533 24.1017 149.674 23.4052 149.956 22.7086C150.238 22.012 150.661 21.4547 151.084 20.8974C151.508 20.3401 152.213 20.0615 152.777 19.6435C153.483 19.3649 154.188 19.2256 155.034 19.2256C156.304 19.2256 157.432 19.6435 158.279 20.4795C158.42 20.2008 158.561 19.9222 158.561 19.5042H159.266L159.407 23.4052H158.702C158.561 22.7086 158.279 22.1513 157.997 21.594C157.573 21.0367 157.15 20.7581 156.727 20.4795C156.304 20.2008 155.74 20.0615 155.175 20.0615C154.611 20.0615 154.047 20.2008 153.624 20.4795C153.2 20.7581 152.777 21.3154 152.495 22.012C152.213 22.7086 152.072 23.5445 152.072 24.5197C152.072 25.4949 152.213 26.3308 152.354 26.8881C152.636 27.5847 152.918 28.0027 153.2 28.2813C153.483 28.56 153.906 28.8386 154.188 28.9779C154.47 29.1172 154.893 29.1172 155.175 29.1172C155.881 29.1172 156.445 28.9779 156.868 28.56C157.432 28.2813 157.856 27.724 158.138 27.3061C158.42 26.7488 158.702 26.3309 158.843 25.7736H159.548V29.9531H159.69Z" fill="black"/>
<path fill-rule="evenodd" clip-rule="evenodd" d="M169 26.7489C169 27.4455 168.859 28.0028 168.436 28.5601C168.154 29.1173 167.589 29.5353 167.025 29.8139C166.461 30.0926 165.755 30.2319 165.05 30.2319C164.345 30.2319 163.78 30.0926 163.216 29.8139C162.652 29.5353 162.088 29.1173 161.805 28.6994C161.382 28.1421 161.241 27.5848 161.241 26.7489C161.241 25.6344 161.664 24.7985 162.37 24.2412C163.075 23.6839 164.063 23.4053 165.191 23.4053C166.038 23.4053 166.602 23.5446 167.307 23.8232C167.871 24.1019 168.295 24.5198 168.577 25.0771C168.859 25.6344 169 26.1917 169 26.7489ZM166.884 26.7489C166.884 25.913 166.743 25.2164 166.602 24.7985C166.32 24.3805 165.896 24.1019 165.191 24.1019C164.768 24.1019 164.486 24.2412 164.204 24.3805C163.922 24.5198 163.78 24.9378 163.639 25.2164C163.498 25.6344 163.498 26.1917 163.498 26.7489C163.498 27.5848 163.639 28.1421 163.78 28.6994C164.063 29.2567 164.486 29.396 165.191 29.396C165.614 29.396 166.038 29.2567 166.32 28.978C166.602 28.6994 166.743 28.4208 166.743 28.0028C166.884 27.7242 166.884 27.3062 166.884 26.7489Z" fill="black"/>
<path fill-rule="evenodd" clip-rule="evenodd" d="M53.1828 44.8608H54.1703L52.3364 41.9351C53.3239 41.6565 53.465 40.9599 53.465 39.8453C53.465 38.5914 53.1828 37.6162 51.49 37.6162H48.8097V44.8608H49.6561V42.0744H51.2079L53.1828 44.8608ZM52.6185 39.706C52.6185 40.8205 52.3364 41.0992 51.49 41.0992H49.7972V38.1735H51.49C52.3364 38.3128 52.6185 38.5914 52.6185 39.706Z" fill="black"/>
<path fill-rule="evenodd" clip-rule="evenodd" d="M59.6719 41.3775C59.6719 43.1886 59.5309 44.1639 57.8381 44.1639C56.1452 44.1639 56.0042 43.1886 56.0042 41.3775V40.9595C56.0042 39.1484 56.1452 38.1732 57.8381 38.1732C59.5309 38.1732 59.6719 39.1484 59.6719 40.9595V41.3775ZM60.6594 40.9595C60.6594 38.7304 60.2362 37.4766 57.9791 37.4766C55.581 37.4766 55.2988 38.8698 55.2988 40.9595V41.5168C55.2988 43.7459 55.722 44.9998 57.9791 44.9998C60.3773 44.9998 60.6594 43.6066 60.6594 41.5168V40.9595Z" fill="black"/>
<path d="M63.7629 44.8605H64.6093V38.3125H66.7253V37.4766H61.6469V38.3125H63.7629V44.8605Z" fill="black"/>
<path d="M72.9324 37.4766H72.0859V42.492C72.0859 43.6066 71.6627 44.1639 70.3931 44.1639C69.1235 44.1639 68.7003 43.6066 68.7003 42.492V37.4766H67.8539V42.3527C67.8539 43.7459 68.4182 44.8605 70.3931 44.8605C72.3681 44.8605 72.9324 43.7459 72.9324 42.3527V37.4766Z" fill="black"/>
<path d="M75.6127 37.4766H74.6252V44.8605H78.5752V44.0246H75.6127V37.4766Z" fill="black"/>
<path fill-rule="evenodd" clip-rule="evenodd" d="M85.3465 44.8608L82.8072 37.6162H81.8198L79.2805 44.8608H80.1269L80.8323 42.771H83.7947L84.5001 44.8608H85.3465ZM83.5126 42.0744H81.1144L82.384 38.4521L83.5126 42.0744Z" fill="black"/>
<path d="M89.0142 38.1732C89.4375 38.1732 90.2839 38.3125 90.7071 38.4518V37.6159C90.2839 37.4766 89.5785 37.4766 88.8732 37.4766C86.475 37.4766 86.1929 38.7304 86.1929 40.9595V41.5168C86.1929 43.7459 86.3339 44.9998 89.0142 44.9998C89.5785 44.9998 90.2839 44.8605 90.7071 44.8605V44.0246C90.2839 44.1639 89.5785 44.3032 89.0142 44.3032C87.3214 44.3032 87.1804 43.6066 87.1804 41.5168V41.0989C87.1804 38.8698 87.3214 38.1732 89.0142 38.1732Z" fill="black"/>
<path d="M92.9641 37.4766H92.1177V44.7211H92.9641V37.4766Z" fill="black"/>
<path fill-rule="evenodd" clip-rule="evenodd" d="M99.1711 41.3774C99.1711 43.1886 99.03 44.1638 97.3372 44.1638C95.6444 44.1638 95.5033 43.1886 95.5033 41.3774V40.9595C95.5033 39.1483 95.6444 38.1731 97.3372 38.1731C99.03 38.1731 99.1711 39.1483 99.1711 40.9595V41.3774ZM100.159 40.9595C100.159 38.7304 99.7354 37.4765 97.4783 37.4765C95.0801 37.4765 94.798 38.8697 94.798 40.9595V41.5168C94.798 43.7459 95.2212 44.9997 97.4783 44.9997C99.8764 44.9997 100.159 43.6065 100.159 41.5168V40.9595ZM96.7729 37.0585L98.7479 36.2226V35.3867L96.7729 36.5013V37.0585Z" fill="black"/>
<path d="M105.942 44.8605H106.93V37.4766H106.083V43.4673L102.698 37.4766H101.71V44.8605H102.557V39.0091L105.942 44.8605Z" fill="black"/>
<path d="M111.303 44.8605H115.394V44.0246H112.149V41.5168H115.112V40.6809H112.149V38.3125H115.394V37.4766H111.303V44.8605Z" fill="black"/>
<path d="M120.473 37.4766H119.626V44.7211H120.473V37.4766Z" fill="black"/>
<path d="M128.654 44.8605L128.372 37.4766H127.385L125.41 42.6314L123.435 37.4766H122.447L122.165 44.8605H123.153L123.294 39.2877L124.987 43.7459H125.833L127.526 39.2877L127.808 44.8605H128.654Z" fill="black"/>
<path fill-rule="evenodd" clip-rule="evenodd" d="M130.347 44.8608H131.194V42.2137H132.886C134.579 42.2137 134.861 41.3778 134.861 39.8453C134.861 38.3128 134.579 37.6162 132.886 37.6162H130.206V44.8608H130.347ZM134.156 39.8453C134.156 40.8205 134.015 41.3778 132.886 41.3778H131.335V38.3128H132.886C133.874 38.3128 134.156 38.5914 134.156 39.8453Z" fill="black"/>
<path fill-rule="evenodd" clip-rule="evenodd" d="M140.645 44.8608H141.633L139.799 41.9351C140.786 41.6565 140.927 40.9599 140.927 39.8453C140.927 38.5914 140.645 37.6162 139.093 37.6162H136.272V44.8608H137.119V42.0744H138.67L140.645 44.8608ZM140.081 39.706C140.081 40.8205 139.799 41.0992 138.952 41.0992H137.26V38.1735H138.952C139.799 38.3128 140.081 38.5914 140.081 39.706Z" fill="black"/>
<path d="M142.761 44.8605H146.993V44.0246H143.749V41.5168H146.711V40.6809H143.749V38.3125H146.993V37.4766H142.761V44.8605Z" fill="black"/>
<path d="M152.777 42.91C152.777 41.5168 152.213 41.2382 150.802 40.8202C149.533 40.5416 149.109 40.4023 149.109 39.427C149.109 38.5911 149.392 38.3125 150.52 38.3125C151.084 38.3125 151.79 38.4518 152.354 38.5911L152.495 37.7552C151.931 37.6159 151.225 37.4766 150.52 37.4766C148.545 37.4766 148.122 38.3125 148.122 39.5663C148.122 40.8202 148.827 41.0989 149.956 41.3775C151.225 41.6561 151.649 41.7954 151.649 42.91C151.649 43.7459 151.225 44.1639 150.097 44.1639C149.392 44.1639 148.686 44.0246 148.122 43.8852L147.981 44.7211C148.545 44.8605 149.392 44.9998 150.097 44.9998C152.213 44.9998 152.777 44.1639 152.777 42.91Z" fill="black"/>
<path d="M155.175 37.4766H154.329V44.7211H155.175V37.4766Z" fill="black"/>
<path fill-rule="evenodd" clip-rule="evenodd" d="M161.241 41.3774C161.241 43.1886 161.1 44.1638 159.407 44.1638C157.714 44.1638 157.573 43.1886 157.573 41.3774V40.9595C157.573 39.1483 157.714 38.1731 159.407 38.1731C161.1 38.1731 161.241 39.1483 161.241 40.9595V41.3774ZM162.229 40.9595C162.229 38.7304 161.805 37.4765 159.548 37.4765C157.15 37.4765 156.868 38.8697 156.868 40.9595V41.5168C156.868 43.7459 157.291 44.9997 159.548 44.9997C161.947 44.9997 162.229 43.6065 162.229 41.5168V40.9595ZM158.843 37.0585L160.818 36.2226V35.3867L158.843 36.5013V37.0585Z" fill="black"/>
<path d="M168.013 44.8605H169V37.4766H168.154V43.4673L164.909 37.4766H163.781V44.8605H164.627V39.0091L168.013 44.8605Z" fill="black"/>
</svg>
