<svg width="207" height="36" viewBox="0 0 207 36" fill="none" xmlns="http://www.w3.org/2000/svg">
<path d="M35.8678 7.25457C34.6519 5.74887 33.2841 4.51693 31.6123 3.42188C24.6211 11.9086 14.5903 21.7641 5.31934 30.2508C5.6233 30.6614 5.92727 30.9352 6.38321 31.2089C15.6541 22.7223 26.1409 13.9618 35.8678 7.25457Z" fill="black"/>
<path d="M39.6674 16.563C39.5154 14.7835 39.0595 12.8672 38.2996 11.2246C29.7886 14.236 17.174 22.1752 6.83923 31.4832C10.3348 34.2208 14.8943 35.8634 19.9097 35.8634C26.445 35.8634 32.0683 33.2626 35.7159 28.8824C28.7247 27.3767 19.1498 26.5554 12.4626 32.3045C12.4626 32.3045 12.0066 32.5782 11.3987 33.2626C11.3987 33.2626 11.2467 33.2626 11.0947 33.2626C10.9428 33.2626 10.7908 33.2626 10.7908 33.2626C13.3745 30.6619 16.4141 28.7455 20.0617 27.3767C25.0771 25.5972 31.3084 24.6391 38.2996 25.1866C38.9075 23.9546 39.3635 22.5858 39.6674 21.217C33.5881 21.6276 28.1168 22.7227 23.1013 24.5022C17.9339 26.4185 13.6784 28.6086 9.11897 32.852C8.96699 32.7151 8.66302 32.7151 8.51104 32.5782L11.0947 30.2512C18.0859 23.4071 29.1806 18.4794 39.6674 16.563ZM23.8613 29.8406C24.9251 29.8406 25.989 29.9775 26.9009 30.1143C28.5727 30.3881 31.0044 31.2094 32.3723 31.8938C30.5485 32.3045 27.5088 32.852 24.6212 32.0307C22.0375 31.2094 19.3018 31.3463 17.0221 32.0307C16.2621 32.3045 15.5022 32.5782 14.7423 32.9889C14.7423 32.9889 14.4384 33.1257 13.9824 33.1257C13.6784 33.1257 13.3745 33.1257 13.3745 33.1257C16.1102 31.0725 19.9097 29.8406 23.8613 29.8406Z" fill="black"/>
<path d="M21.4295 0C19.3018 9.44487 13.8304 19.4373 6.38326 26.2814L3.95154 28.6084C3.79956 28.4715 3.79956 28.1977 3.64758 28.0608C11.7026 20.8061 15.6542 11.4981 16.4141 0.273764C14.7423 0.547529 13.3744 0.958175 11.8546 1.5057C12.4626 7.93916 11.2467 13.4144 9.42291 18.0684C8.05507 21.3536 5.77533 24.365 3.03965 26.692C3.03965 26.692 3.03965 26.4183 2.88767 26.2814C2.88767 26.1445 2.88767 26.0076 2.88767 26.0076C3.34361 25.597 3.79956 25.0494 3.79956 25.0494C9.87885 19.1635 9.11894 10.2662 7.59912 3.96958C6.38326 4.65399 5.47137 5.47529 4.40749 6.70722C5.01542 7.93916 5.92731 9.9924 6.38326 11.4981C6.53524 12.4563 6.68722 13.2776 6.68722 14.2357C6.68722 17.6578 5.47137 21.2167 3.03965 23.8175C3.03965 23.8175 3.03965 23.5437 3.19163 23.1331C3.19163 22.8593 3.34361 22.5856 3.34361 22.5856C3.79956 22.038 4.10352 21.3536 4.40749 20.6692C5.31938 18.4791 5.31938 15.8783 4.40749 13.6882C3.34361 10.9506 3.95154 8.34981 4.40749 6.70722C1.67181 9.71863 0 13.6882 0 17.9316C0 22.4487 1.82379 26.5551 4.86344 29.7034C14.5903 20.8061 23.7093 9.9924 27.3568 1.23194C25.533 0.547529 23.5573 0.136882 21.4295 0Z" fill="black"/>
<path d="M61.4009 27.1025L57.1454 20.5321L52.8899 27.2393H49.5463L55.4736 18.0682L50.0022 9.58154H53.4978L57.4494 15.7412L61.2489 9.58154H64.5925L58.9692 18.2051L64.8965 27.2393H61.4009V27.1025Z" fill="black"/>
<path d="M78.4229 15.3307V27.1026H75.6872V26.2813C74.7753 26.9657 73.5595 27.5132 72.1916 27.5132C68.2401 27.5132 65.8083 24.7756 65.8083 20.806C65.8083 17.1102 68.392 14.3726 72.3436 14.3726C74.3194 14.3726 76.1432 15.4676 77.359 15.4676H78.4229V15.3307ZM68.696 20.6691C68.696 23.4068 70.0639 25.0494 72.3436 25.0494C73.7114 25.0494 74.9273 24.5018 75.6872 23.5437V17.384C74.7753 17.1102 73.7114 16.4258 72.4956 16.4258C70.0639 16.5627 68.696 18.3421 68.696 20.6691Z" fill="black"/>
<path d="M84.1982 18.6161V22.9963C84.8061 24.2282 86.174 25.1864 87.6938 25.1864C89.3656 25.1864 90.5815 24.2282 91.1894 22.9963L93.6211 24.2282C92.5572 26.1446 90.4295 27.5134 87.6938 27.5134C85.1101 27.5134 82.8304 26.0077 81.4625 23.5438V18.0685C82.6784 15.7415 84.9581 14.2358 87.6938 14.2358C90.5815 14.2358 92.7092 15.4678 93.6211 17.3841L91.1894 18.6161C90.5815 17.3841 89.2136 16.426 87.6938 16.426C86.174 16.426 84.8061 17.3841 84.1982 18.6161Z" fill="black"/>
<path d="M108.971 20.669C108.971 24.7754 106.236 27.5131 102.132 27.5131C98.0286 27.5131 95.293 24.7754 95.293 20.669C95.293 16.8363 98.0286 14.0986 102.132 14.0986C106.236 14.2355 108.971 16.8363 108.971 20.669ZM102.132 16.5625C99.7005 16.5625 98.1806 18.2051 98.1806 20.669C98.1806 23.4066 99.7005 25.1861 102.132 25.1861C104.564 25.1861 106.084 23.4066 106.084 20.669C106.084 18.2051 104.564 16.5625 102.132 16.5625Z" fill="black"/>
<path d="M117.786 14.2355C121.586 14.2355 124.17 16.9732 124.17 20.669C124.17 24.6386 121.738 27.3762 117.938 27.3762C116.57 27.3762 115.355 26.9656 114.443 26.418V27.1025H111.707V9.58154H114.443V15.4675C115.355 15.0568 116.418 14.2355 117.786 14.2355ZM117.634 16.5625C116.418 16.5625 115.355 17.5207 114.291 17.9314V23.6804C115.051 24.3648 116.267 24.9123 117.634 24.9123C119.762 24.9123 121.282 23.2698 121.282 20.5321C121.282 18.2051 119.762 16.5625 117.634 16.5625Z" fill="black"/>
<path d="M126.449 20.669C126.449 16.8363 128.881 14.0986 132.833 14.0986C136.632 14.0986 139.064 16.6994 139.064 20.8059V21.3534H129.185C129.337 23.4066 130.857 25.1861 132.985 25.1861C134.352 25.1861 135.568 24.6386 136.176 23.6804L138.608 24.9123C137.544 26.5549 135.264 27.65 132.985 27.65C128.881 27.5131 126.449 24.6386 126.449 20.669ZM136.024 19.437C136.024 17.9313 134.808 16.5625 132.833 16.5625C130.705 16.5625 129.489 17.9313 129.337 19.437H136.024Z" fill="black"/>
<path d="M155.022 20.669C155.022 24.7754 152.286 27.5131 148.183 27.5131C144.079 27.5131 141.344 24.7754 141.344 20.669C141.344 16.8363 144.079 14.0986 148.183 14.0986C152.286 14.2355 155.022 16.8363 155.022 20.669ZM148.183 16.5625C145.751 16.5625 144.231 18.2051 144.231 20.669C144.231 23.4066 145.751 25.1861 148.183 25.1861C150.615 25.1861 152.134 23.4066 152.134 20.669C152.134 18.2051 150.615 16.5625 148.183 16.5625Z" fill="black"/>
<path d="M165.357 24.7753H172.956V27.1023H162.469V25.8703C162.469 22.7221 164.293 20.8057 166.877 19.1631C168.548 18.0681 169.764 17.1099 169.764 16.0148C169.764 14.9198 168.852 14.0985 167.485 14.0985C166.269 14.0985 165.205 15.0567 164.597 16.1517L162.317 14.9198C163.381 13.0034 165.205 11.7715 167.637 11.7715C170.524 11.7715 172.652 13.551 172.652 16.0148C172.652 18.4787 170.828 19.7106 168.852 20.9426C166.877 22.0376 165.509 23.1327 165.357 24.7753Z" fill="black"/>
<path d="M186.938 19.4369C186.938 24.0909 184.811 27.376 180.859 27.376C176.908 27.376 174.78 24.0909 174.78 19.4369C174.78 14.9198 176.908 11.7715 180.859 11.7715C184.811 11.7715 186.938 14.9198 186.938 19.4369ZM180.859 14.0985C178.579 14.0985 177.667 16.4255 177.667 19.4369C177.667 22.5852 178.731 25.0491 180.859 25.0491C183.139 25.0491 184.051 22.5852 184.051 19.4369C184.051 16.4255 182.987 14.0985 180.859 14.0985Z" fill="black"/>
<path d="M191.802 24.7753H199.401V27.1023H188.914V25.8703C188.914 22.7221 190.738 20.8057 193.322 19.1631C194.993 18.0681 196.209 17.1099 196.209 16.0148C196.209 14.9198 195.297 14.0985 193.93 14.0985C192.714 14.0985 191.65 15.0567 191.042 16.1517L188.762 14.9198C189.826 13.0034 191.65 11.7715 194.081 11.7715C196.969 11.7715 199.097 13.551 199.097 16.0148C199.097 18.4787 197.273 19.7106 195.297 20.9426C193.322 22.0376 191.802 23.1327 191.802 24.7753Z" fill="black"/>
<path d="M207 12.0454V27.1024H204.264V15.0568L202.137 16.4256L200.769 14.6462L204.872 12.0454H207Z" fill="black"/>
</svg>
