<svg width="132" height="23" viewBox="0 0 198 34" fill="none" xmlns="http://www.w3.org/2000/svg">
<path fill-rule="evenodd" clip-rule="evenodd" d="M115.03 0.401367L108.769 15.6612H112.118L113.283 12.8502H119.981L121.146 15.6612H124.786L118.671 0.401367H115.03ZM118.962 10.0392H114.448L116.632 4.1494L118.962 10.0392Z" fill="black"/>
<path fill-rule="evenodd" clip-rule="evenodd" d="M125.514 10.4404C125.514 13.653 127.698 15.9286 131.047 15.9286C132.212 15.9286 133.377 15.6609 134.396 14.7239V15.527C134.396 17.401 133.231 17.9365 131.63 17.9365C130.61 17.9365 129.737 17.6688 128.718 16.9995L126.679 19.1412C128.426 20.3459 130.465 20.4798 131.775 20.4798C134.542 20.4798 137.745 19.6766 137.745 15.3932V5.08608H134.833L134.542 6.42466C133.814 5.48765 132.649 4.81836 130.902 4.81836C127.844 4.81836 125.514 7.09395 125.514 10.4404ZM134.542 10.4404C134.542 12.3144 133.377 13.2514 131.775 13.2514C130.028 13.2514 129.009 12.0467 129.009 10.4404C129.009 8.83411 130.028 7.76324 131.775 7.76324C133.377 7.62938 134.542 8.56639 134.542 10.4404Z" fill="black"/>
<path fill-rule="evenodd" clip-rule="evenodd" d="M139.929 10.4412C139.929 13.9215 142.55 15.9294 146.045 15.9294C148.375 15.9294 150.559 14.9924 151.578 12.9845L148.52 11.9136C147.938 13.2522 146.773 13.5199 146.045 13.5199C144.88 13.5199 143.57 12.9845 143.424 11.3782H151.724C151.724 11.1105 151.724 10.9766 151.724 10.4412C151.724 6.69314 149.103 4.95299 146.045 4.95299C142.842 4.81913 139.929 6.69314 139.929 10.4412ZM148.375 9.23645H143.424C143.715 7.89787 144.88 7.36244 146.045 7.36244C147.064 7.36244 148.229 7.89787 148.375 9.23645Z" fill="black"/>
<path fill-rule="evenodd" clip-rule="evenodd" d="M157.111 6.82623L156.82 5.08608H153.908V15.6609H157.257V9.63726C157.257 8.29867 158.567 7.62938 159.587 7.62938C160.46 7.62938 161.334 8.03096 161.334 9.36954V15.6609H164.683V9.36954C164.683 6.02308 162.79 4.81836 160.606 4.81836C159.004 4.81836 157.839 5.48765 157.111 6.82623Z" fill="black"/>
<path fill-rule="evenodd" clip-rule="evenodd" d="M166.576 10.3066C166.576 13.2515 169.051 15.7948 172.837 15.7948C174.875 15.7948 177.205 14.9917 178.37 12.7161L175.167 11.6452C174.875 12.4483 173.856 12.9838 172.691 12.9838C170.653 12.9838 170.07 11.5113 170.07 10.1728C170.07 8.83418 170.798 7.49559 172.691 7.49559C173.856 7.49559 174.584 8.03103 174.875 8.83418L178.079 7.76331C177.06 5.48772 175.021 4.68457 172.837 4.68457C169.051 4.81843 166.576 7.36174 166.576 10.3066Z" fill="black"/>
<path d="M183.175 5.08691H179.826V15.6617H183.175V5.08691Z" fill="black"/>
<path fill-rule="evenodd" clip-rule="evenodd" d="M179.389 2.00787C179.389 3.07874 180.409 4.01575 181.573 4.01575C182.738 4.01575 183.758 3.07874 183.758 2.00787C183.758 0.937008 182.738 0 181.573 0C180.263 0 179.389 0.937008 179.389 2.00787Z" fill="black"/>
<path fill-rule="evenodd" clip-rule="evenodd" d="M185.214 10.3072C185.214 13.6537 187.543 15.9293 190.747 15.9293C192.494 15.9293 193.659 15.26 194.387 14.323L194.678 15.6615H197.59V5.08673H194.241V6.1576C193.222 5.22059 192.057 4.95288 190.892 4.95288C187.398 4.81902 185.214 7.09461 185.214 10.3072ZM194.241 10.3072C194.241 12.0474 193.076 13.1182 191.475 13.1182C189.727 13.1182 188.708 11.9135 188.708 10.3072C188.708 8.70091 189.727 7.63004 191.475 7.63004C193.076 7.63004 194.241 8.56705 194.241 10.3072Z" fill="black"/>
<path fill-rule="evenodd" clip-rule="evenodd" d="M109.061 26.2365C109.061 31.0554 112.701 34.1341 117.651 34.1341C120.564 34.1341 123.039 33.0633 124.495 31.1893V25.4334H116.778V28.2444H121V30.3861C120.127 31.0554 118.962 31.3231 117.651 31.3231C114.157 31.3231 112.41 29.0475 112.41 26.2365C112.41 23.2916 114.011 21.1499 117.506 21.1499C119.253 21.1499 120.709 21.953 121.437 23.4255L124.495 22.2208C123.185 19.6775 120.418 18.3389 117.506 18.3389C112.41 18.3389 109.061 21.2838 109.061 26.2365Z" fill="black"/>
<path fill-rule="evenodd" clip-rule="evenodd" d="M130.174 24.6299L129.883 23.1574H126.97V33.7322H130.319V27.5748C130.319 26.2362 131.63 25.5669 132.795 25.5669C133.086 25.5669 133.377 25.5669 133.814 25.7007L134.251 22.8897C133.814 22.7559 133.523 22.7559 133.231 22.7559C132.067 23.0236 131.047 23.4252 130.174 24.6299Z" fill="black"/>
<path fill-rule="evenodd" clip-rule="evenodd" d="M141.094 18.4727L139.493 21.5514H141.968L144.735 18.4727" fill="black"/>
<path fill-rule="evenodd" clip-rule="evenodd" d="M134.833 28.5116C134.833 31.8581 137.163 34.1337 140.366 34.1337C142.114 34.1337 143.278 33.4644 144.006 32.5274L144.298 33.866H147.21V23.2912H143.861V24.362C142.842 23.425 141.677 23.1573 140.512 23.1573C137.017 23.0234 134.833 25.1652 134.833 28.5116ZM143.861 28.5116C143.861 30.2518 142.696 31.3227 141.094 31.3227C139.347 31.3227 138.328 30.1179 138.328 28.5116C138.328 26.9053 139.347 25.8345 141.094 25.8345C142.696 25.8345 143.861 26.6376 143.861 28.5116Z" fill="black"/>
<path fill-rule="evenodd" clip-rule="evenodd" d="M150.704 21.6854V23.1578H148.957V25.9689H150.704V33.8665H154.053V25.9689H156.529V23.1578H154.053V22.087C154.053 21.4177 154.636 21.0161 155.51 21.0161C155.946 21.0161 156.238 21.0161 156.82 21.2838V18.4728C156.238 18.2051 155.364 18.2051 154.636 18.2051C152.015 18.3389 150.704 19.8114 150.704 21.6854Z" fill="black"/>
<path d="M162.062 23.1572H158.713V33.732H162.062V23.1572Z" fill="black"/>
<path fill-rule="evenodd" clip-rule="evenodd" d="M158.276 20.0792C158.276 21.15 159.295 22.087 160.46 22.087C161.625 22.087 162.644 21.15 162.644 20.0792C162.644 19.0083 161.625 18.0713 160.46 18.0713C159.295 18.0713 158.276 19.0083 158.276 20.0792Z" fill="black"/>
<path fill-rule="evenodd" clip-rule="evenodd" d="M164.1 28.5117C164.1 31.4566 166.576 33.9999 170.361 33.9999C172.4 33.9999 174.73 33.1967 175.895 30.9211L172.691 29.8503C172.4 30.6534 171.381 31.1889 170.216 31.1889C168.177 31.1889 167.595 29.7164 167.595 28.3778C167.595 27.0393 168.323 25.7007 170.216 25.7007C171.381 25.7007 172.109 26.2361 172.4 27.0393L175.603 25.9684C174.584 23.6928 172.546 22.8896 170.361 22.8896C166.576 23.0235 164.1 25.5668 164.1 28.5117Z" fill="black"/>
<path fill-rule="evenodd" clip-rule="evenodd" d="M176.768 28.5116C176.768 31.8581 179.098 34.1337 182.301 34.1337C184.049 34.1337 185.214 33.4644 185.942 32.5274L186.233 33.866H189.145V23.2912H185.796V24.362C184.777 23.425 183.612 23.1573 182.447 23.1573C178.952 23.0234 176.768 25.1652 176.768 28.5116ZM185.65 28.5116C185.65 30.2518 184.486 31.3227 182.884 31.3227C181.137 31.3227 180.117 30.1179 180.117 28.5116C180.117 26.9053 181.137 25.8345 182.884 25.8345C184.631 25.8345 185.65 26.6376 185.65 28.5116Z" fill="black"/>
<path fill-rule="evenodd" clip-rule="evenodd" d="M7.13482 0.401367L0.14563 15.6612H0.728063L2.62097 11.3777H12.0855L13.9784 15.6612H14.5608L7.71725 0.401367H7.13482ZM11.9399 10.9762H2.91218L7.42604 1.07066L11.9399 10.9762Z" fill="black"/>
<path fill-rule="evenodd" clip-rule="evenodd" d="M24.171 0.401367L17.473 15.6612H18.7835L20.5308 11.7793H29.2673L31.0146 15.6612H32.4707L25.6271 0.401367H24.171ZM28.6849 10.5746H20.9676L24.7534 1.60609L28.6849 10.5746Z" fill="black"/>
<path fill-rule="evenodd" clip-rule="evenodd" d="M41.9352 0.401367L35.2372 15.6612H36.9845L38.5862 11.9132H46.8858L48.4875 15.6612H50.3804L43.8281 0.401367H41.9352ZM46.3034 10.5746H39.1686L42.6632 2.14152L46.3034 10.5746Z" fill="black"/>
<path fill-rule="evenodd" clip-rule="evenodd" d="M59.6993 0.401367L53.147 15.6612H55.3311L56.7872 12.1809H64.7956L66.2517 15.6612H68.5814L62.1747 0.401367H59.6993ZM64.0676 10.4407H57.6608L60.8642 2.67696L64.0676 10.4407Z" fill="black"/>
<path fill-rule="evenodd" clip-rule="evenodd" d="M77.9003 0.401367L71.4935 15.6612H74.1145L75.5706 12.4486H82.9966L84.4527 15.6612H87.2192L80.6669 0.401367H77.9003ZM82.1229 10.3069H76.2986L79.2108 3.21239L82.1229 10.3069Z" fill="black"/>
<path fill-rule="evenodd" clip-rule="evenodd" d="M96.3926 0.401367L90.1315 15.6612H93.0436L94.3541 12.5825H101.489L102.799 15.6612H106.003L99.596 0.401367H96.3926ZM100.324 10.173H95.2278L97.7031 3.61397L100.324 10.173Z" fill="black"/>
<path fill-rule="evenodd" clip-rule="evenodd" d="M0 26.1026C0 30.5199 3.34899 34.0003 8.00845 34.0003C11.2118 34.0003 13.5416 32.394 14.7064 29.9845V25.9688H7.42602V26.5042H14.124V29.8506C13.6872 30.9215 11.7943 33.4648 8.15406 33.4648C4.07703 33.4648 0.582433 30.3861 0.582433 26.1026C0.582433 22.0869 3.4946 18.7404 8.00845 18.7404C11.3574 18.7404 13.5416 20.6144 14.124 22.2207L14.5608 22.0869C13.5416 19.8113 11.0662 18.3388 7.86284 18.3388C3.34899 18.205 0 21.5514 0 26.1026Z" fill="black"/>
<path fill-rule="evenodd" clip-rule="evenodd" d="M17.3274 26.1027C17.3274 30.6539 20.6764 34.0004 25.4814 34.0004C28.3936 34.0004 30.869 32.6618 32.325 30.2523V25.7011H24.7534V26.772H30.869V29.8508C29.9953 31.3232 28.1024 32.6618 25.3358 32.6618C21.55 32.6618 18.6379 29.9846 18.6379 25.9689C18.6379 22.087 21.4044 19.2759 25.3358 19.2759C28.3936 19.2759 30.1409 20.8822 30.869 22.4885L32.1794 22.087C31.3058 20.0791 28.8304 18.2051 25.4814 18.2051C20.9676 18.2051 17.3274 21.2838 17.3274 26.1027Z" fill="black"/>
<path fill-rule="evenodd" clip-rule="evenodd" d="M35.2372 26.1029C35.2372 30.788 38.7318 34.0006 43.5368 34.0006C46.449 34.0006 48.9243 32.7958 50.3804 30.5203V25.8352H42.8088V27.3077H48.6331V30.2525C47.7595 31.5911 46.0122 32.662 43.5368 32.662C39.751 32.662 37.1301 29.9848 37.1301 26.2368C37.1301 22.6226 39.6054 19.8116 43.5368 19.8116C46.3034 19.8116 48.0507 21.284 48.7787 22.7565L50.3804 22.221C49.3612 20.0793 46.8858 18.3392 43.5368 18.3392C38.7318 18.2053 35.2372 21.284 35.2372 26.1029Z" fill="black"/>
<path fill-rule="evenodd" clip-rule="evenodd" d="M53.2926 26.1029C53.2926 30.788 56.7872 34.0006 61.5923 34.0006C64.5044 34.0006 66.9798 32.7958 68.4359 30.6541V25.7014H60.8642V27.4415H66.2517V30.1187C65.3781 31.3234 63.7764 32.2604 61.5923 32.2604C57.8065 32.2604 55.4767 29.7171 55.4767 26.2368C55.4767 22.7565 57.8065 20.2132 61.5923 20.2132C64.0676 20.2132 65.8149 21.5518 66.3973 23.0242L68.4359 22.221C67.4166 19.9455 64.7957 18.3392 61.5923 18.3392C56.7872 18.2053 53.2926 21.284 53.2926 26.1029Z" fill="black"/>
<path fill-rule="evenodd" clip-rule="evenodd" d="M71.7848 26.1027C71.7848 30.9216 75.2794 34.0004 80.2301 34.0004C83.1422 34.0004 85.6176 32.7956 87.0736 30.7878V25.4334H79.502V27.5752H84.4527V30.1185C83.5791 31.0555 81.9774 31.8586 80.2301 31.8586C76.5899 31.8586 74.4057 29.4492 74.4057 26.1027C74.4057 22.8901 76.4443 20.3468 80.0845 20.3468C82.2686 20.3468 83.8703 21.5515 84.5983 23.024L86.928 22.087C85.7632 19.6775 83.1422 18.2051 79.9389 18.2051C75.2794 18.2051 71.7848 21.2838 71.7848 26.1027Z" fill="black"/>
<path fill-rule="evenodd" clip-rule="evenodd" d="M90.1315 26.1029C90.1315 30.9218 93.6261 34.0006 98.7224 34.0006C101.635 34.0006 104.11 32.7958 105.566 30.9218V25.4336H97.9943V27.8431H102.654V30.1187C101.78 30.9218 100.47 31.4573 98.868 31.4573C95.2278 31.4573 93.3348 29.1817 93.3348 26.1029C93.3348 23.0242 95.2278 20.7486 98.7224 20.7486C100.761 20.7486 102.217 21.6856 102.945 23.2919L105.712 22.221C104.401 19.6777 101.78 18.3392 98.7224 18.3392C93.6261 18.2053 90.1315 21.284 90.1315 26.1029Z" fill="black"/>
</svg>
