<svg width="156" height="48" viewBox="0 0 156 48" fill="none" xmlns="http://www.w3.org/2000/svg">
<path d="M0 0H36.1981V48H0V0Z" fill="black"/>
<path d="M8.48157 16.8525V18.6581H6.66409V16.8525H4.84662V15.0469H6.66409V13.2412H8.48157V15.0469H10.299V16.8525H8.48157Z" fill="white"/>
<path d="M8.48157 27.3857V29.1913H6.66409V27.3857H4.84662V25.5801H6.66409V23.7744H8.48157V25.5801H10.299V27.3857H8.48157Z" fill="white"/>
<path d="M8.48157 37.919V39.7246H6.66409V37.919H4.84662V36.1133H6.66409V34.1572H8.48157V36.1133H10.299V37.919H8.48157Z" fill="white"/>
<path d="M29.534 16.8525V18.6581H27.7165V16.8525H25.899V15.0469H27.7165V13.2412H29.534V15.0469H31.3515V16.8525H29.534Z" fill="white"/>
<path d="M29.534 27.3857V29.1913H27.7165V27.3857H25.899V25.5801H27.7165V23.7744H29.534V25.5801H31.3515V27.3857H29.534Z" fill="white"/>
<path d="M29.534 37.919V39.7246H27.7165V37.919H25.899V36.1133H27.7165V34.1572H29.534V36.1133H31.3515V37.919H29.534Z" fill="white"/>
<path d="M12.1165 27.2355C12.1165 28.7402 12.5709 29.944 13.4796 31.1477C14.3884 32.201 15.6 32.9534 16.9631 33.2543C17.1146 33.7057 17.1146 34.0067 17.1146 34.3076C17.266 35.9628 17.1146 37.618 16.3573 39.1227C15.7515 40.6274 14.8427 41.9816 13.6311 43.0349C13.6311 43.0349 13.6311 43.0349 13.6311 43.1854C13.6311 43.3358 13.6311 43.3358 13.7825 43.3358H22.4155C22.567 43.3358 22.567 43.3358 22.567 43.1854C22.567 43.0349 22.567 43.0349 22.567 43.0349C21.3554 41.9816 20.4466 40.6274 19.8408 39.1227C19.235 37.618 19.0835 35.9628 19.235 34.3076C19.235 34.0067 19.235 33.7057 19.3864 33.2543C20.7495 32.9534 21.9612 32.3515 22.8699 31.1477C23.7787 30.0944 24.233 28.7402 24.233 27.2355V27.085C24.233 26.9346 24.233 26.9346 24.0816 26.9346H12.268C12.1165 26.9346 12.1165 26.9346 12.1165 27.085V27.2355Z" fill="white"/>
<path d="M15.1456 23.1725C15.1456 21.5173 16.5087 20.1631 18.1748 20.1631C19.8408 20.1631 21.2039 21.5173 21.2039 23.1725C21.2039 24.8277 19.8408 26.1819 18.1748 26.1819C16.5087 26.0314 15.1456 24.8277 15.1456 23.1725Z" fill="white"/>
<path d="M19.0835 16.8525V18.6581H17.266V16.8525H15.4485V15.0469H17.266V13.2412H19.0835V15.0469H20.901V16.8525H19.0835Z" fill="white"/>
<path d="M17.8719 2.40723V2.85864H17.2661V3.46052H17.8719V3.91193H18.4777V3.46052H18.9321V2.85864H18.4777V2.40723H17.8719Z" fill="white"/>
<path d="M13.0252 9.63039H13.934L12.5709 7.82474C12.4194 7.37333 12.4194 7.07239 12.4194 6.92192C12.4194 6.47051 12.5709 6.16957 12.8738 5.86863C13.1767 5.56769 13.6311 5.41722 14.0854 5.41722C14.3884 5.41722 14.5398 5.41722 14.6913 5.41722C14.3884 5.71816 14.2369 6.16957 14.2369 6.47051C14.2369 6.92192 14.3884 7.37333 14.5398 7.67427L15.7515 9.78086H16.6602L15.2971 7.37333C15.1456 7.07239 14.9942 6.77145 14.9942 6.47051C14.9942 6.0191 15.1456 5.71816 15.4485 5.41722C15.7515 5.11628 16.2058 4.96581 16.5087 4.96581C16.9631 4.96581 17.4175 5.11628 17.7204 5.56769V9.78086H18.4777V5.41722C18.7806 5.11628 19.0835 4.81534 19.6893 4.81534C20.1437 4.81534 20.4466 4.96581 20.7495 5.26675C21.0524 5.71816 21.2039 6.0191 21.2039 6.47051C21.2039 6.77145 21.2039 7.07239 21.0524 7.22286L19.6893 9.63039H20.5981L21.8097 7.5238C21.9612 7.22286 22.1126 6.77145 22.1126 6.32004C22.1126 6.0191 22.1126 5.71816 21.9612 5.26675C22.1126 5.26675 22.2641 5.26675 22.567 5.26675C23.0214 5.26675 23.3243 5.41722 23.6272 5.71816C23.9301 6.0191 24.0816 6.32004 24.0816 6.77145C24.0816 7.07239 23.9301 7.22286 23.7786 7.67427L22.4155 9.63039H23.3243L24.3845 8.12568C24.6874 7.82474 24.8388 7.37333 24.8388 6.77145C24.8388 6.16957 24.5359 5.56769 24.0816 5.26675C23.6272 4.81534 23.0214 4.5144 22.4155 4.5144C22.1126 4.5144 21.6583 4.5144 21.3553 4.66487C20.901 4.21346 20.4466 4.06299 19.8408 4.06299C19.235 4.06299 18.6291 4.21346 18.3262 4.66487C17.8718 4.36393 17.266 4.06299 16.8117 4.06299C16.2058 4.06299 15.6 4.21346 15.2971 4.66487C14.5398 4.66487 14.2369 4.66487 13.934 4.66487C13.3282 4.66487 12.7223 4.96581 12.268 5.41722C11.8136 5.86863 11.5107 6.32004 11.5107 6.92192C11.5107 7.5238 11.6621 7.97521 11.9651 8.27615L13.0252 9.63039Z" fill="white"/>
<path d="M13.3281 10.3828L13.4796 11.1352H22.7184L22.8699 10.3828H13.3281Z" fill="white"/>
<path d="M98.7495 6.31947C98.2951 6.31947 97.8408 6.31947 97.2349 6.31947H95.5689V14.7458C95.5689 15.4982 95.5689 16.2505 95.7204 17.0029C95.8718 17.7552 96.0233 18.5076 96.3262 19.2599H92.6912C92.9942 18.5076 93.1456 17.9057 93.2971 17.0029C93.4485 16.2505 93.4485 15.4982 93.4485 14.7458V6.31947H91.7825C91.1767 6.31947 90.7223 6.31947 90.2679 6.31947C89.6621 6.31947 88.9048 6.62041 88.299 6.92135V4.21289H100.567V6.92135C100.113 6.62041 99.5068 6.31947 98.7495 6.31947Z" fill="black"/>
<path d="M86.1786 8.727V16.5514C86.1786 16.8524 86.1786 17.3038 86.1786 17.7552C86.1786 18.3571 86.3301 18.658 86.4815 19.1094H84.0582C83.7553 18.5076 83.3009 17.7552 82.8466 17.3038L76.0311 7.97465V14.5953C76.0311 15.3477 76.031 16.1 76.1825 16.8524C76.334 17.6047 76.4854 18.3571 76.7883 19.1094H73.1534C73.4563 18.3571 73.6078 17.7552 73.7592 16.8524C73.9107 16.1 73.9107 15.3477 73.9107 14.5953V6.77088C73.9107 6.46994 73.9107 6.01853 73.9107 5.56712C73.9107 4.96524 73.7592 4.6643 73.6077 4.21289H76.1825C76.4854 4.81477 76.9398 5.56712 77.3942 6.01853L84.0582 15.1972V8.727C84.0582 7.97465 84.0582 7.2223 83.9068 6.46994C83.7553 5.71759 83.6039 4.96524 83.3009 4.21289H86.9359C86.633 4.96524 86.4815 5.56712 86.3301 6.46994C86.3301 7.2223 86.1786 7.97465 86.1786 8.727Z" fill="black"/>
<path d="M59.6738 8.727C59.6738 7.97465 59.6738 7.2223 59.5223 6.46994C59.3709 5.71759 59.2194 4.96524 58.9165 4.21289H62.5515C62.2485 4.96524 62.0971 5.56712 61.9456 6.46994C61.7942 7.2223 61.7942 7.97465 61.7942 8.727V10.0812V13.843C61.7942 15.7991 63.3087 17.3038 65.2777 17.3038C67.2466 17.3038 68.7612 15.7991 68.7612 13.843V10.0812V8.727C68.7612 7.97465 68.7612 7.2223 68.6097 6.46994C68.4583 5.71759 68.3068 4.96524 68.0039 4.21289H71.6388C71.3359 4.96524 71.1845 5.56712 71.033 6.46994C70.8816 7.2223 70.8816 7.97465 70.8816 8.727V10.0812V13.843C70.8816 16.8524 68.3068 19.4104 65.2777 19.4104C62.2485 19.4104 59.6738 16.8524 59.6738 13.843V10.0812V8.727Z" fill="black"/>
<path d="M44.5282 4.21289H48.1631C48.1631 4.51383 48.3146 4.81477 48.3146 5.11571C48.466 5.41665 48.6175 5.71759 49.0719 6.46994C49.5262 7.2223 50.7379 8.87747 51.1922 9.62982L53.1612 6.46994C53.4641 6.01853 53.6155 5.71759 53.767 5.41665C53.9185 4.96524 53.9185 4.6643 54.0699 4.21289H57.402C56.9476 4.81477 56.4932 5.41665 56.0389 6.01853C56.0389 6.01853 53.3126 10.2317 52.5554 11.285L56.6447 17.1533C57.402 18.2066 58.3107 19.1094 58.3107 19.1094H54.2214C54.3728 18.3571 54.3728 17.9057 53.9185 17.3038L51.3437 13.2411L49.3748 15.9496C48.6175 17.1533 48.1631 17.9057 47.8602 19.1094H44.3767C45.5884 17.9057 46.6486 16.401 47.5573 15.0467L49.9806 11.4355L46.9515 7.2223C45.8913 5.56712 44.5282 4.21289 44.5282 4.21289Z" fill="black"/>
<path d="M110.109 6.16957C109.654 6.16957 109.049 6.0191 108.443 6.0191C106.928 6.0191 105.716 6.47051 104.656 7.37333C103.748 8.12568 103.142 9.32945 103.142 10.8341H109.957L110.109 6.16957ZM112.532 19.11L109.654 19.2605C109.806 18.8091 109.957 18.3577 109.957 17.9062C109.957 17.4548 109.957 17.0034 109.957 16.7025V12.9407H103.142V15.4987V16.552C103.142 17.4548 103.293 18.2072 103.293 19.11H100.113C100.416 18.3577 100.567 17.7558 100.718 16.853C100.87 16.1006 100.87 15.3483 100.87 14.5959V13.0912V12.6398V10.9846C100.87 8.87804 101.476 7.22286 102.839 6.0191C104.202 4.66487 105.868 4.06299 108.14 4.06299C108.746 4.06299 109.2 4.06299 109.654 4.21346C110.412 4.21346 111.169 4.36393 111.926 4.5144V16.853C111.926 17.1539 111.926 17.6053 111.926 18.0567C112.229 18.2072 112.381 18.6586 112.532 19.11Z" fill="black"/>
<path d="M153.425 26.633C153.122 26.4825 152.516 26.4825 151.759 26.4825C150.245 26.4825 149.033 26.9339 147.973 27.8367C147.064 28.5891 146.458 29.7928 146.458 31.2975H153.274V26.633H153.425ZM156 39.5734L153.122 39.7239C153.274 39.2725 153.425 38.821 153.425 38.3696C153.425 37.9182 153.425 37.4668 153.425 37.1659V33.4041H146.61V35.9621V37.3163C146.61 38.2192 146.761 38.9715 146.761 39.8743H143.581C143.883 39.122 144.035 38.5201 144.186 37.6173C144.338 36.8649 144.338 36.1126 144.338 35.3602V33.8555V33.1032V31.448C144.338 29.3414 144.944 27.6862 146.307 26.4825C147.67 25.1282 149.336 24.5264 151.608 24.5264C152.214 24.5264 152.668 24.5264 153.122 24.6768C153.88 24.6768 154.637 24.8273 155.394 24.9778V37.3163C155.394 37.6173 155.394 38.0687 155.394 38.5201C155.697 38.6706 155.849 39.122 156 39.5734Z" fill="black"/>
<path d="M141.006 29.1914V35.2102C141.006 35.9625 141.006 36.7149 141.157 37.4672C141.309 38.2196 141.46 38.9719 141.763 39.7243H138.128C138.431 38.9719 138.583 38.37 138.734 37.4672C138.885 36.7149 138.885 35.9625 138.885 35.2102V29.1914C138.885 28.439 138.885 27.6867 138.734 26.9343C138.583 26.1819 138.431 25.4296 138.128 24.6772H141.763C141.46 25.4296 141.309 26.0315 141.157 26.9343C141.006 27.6867 141.006 28.439 141.006 29.1914Z" fill="black"/>
<path d="M119.499 29.1914V35.2102C119.499 35.9625 119.499 36.7149 119.65 37.4672C119.802 38.2196 119.953 38.9719 120.256 39.7243H116.621C116.924 38.9719 117.076 38.37 117.227 37.4672C117.379 36.7149 117.379 35.9625 117.379 35.2102V29.1914C117.379 28.439 117.379 27.6867 117.227 26.9343C117.076 26.1819 116.924 25.4296 116.621 24.6772H120.256C119.953 25.4296 119.802 26.0315 119.65 26.9343C119.499 27.6867 119.499 28.439 119.499 29.1914Z" fill="black"/>
<path d="M108.746 29.1914V37.6177H110.26C111.017 37.6177 111.775 37.6177 112.532 37.4672C113.289 37.3167 114.047 37.1663 114.804 36.8653V39.7243H105.716C106.019 38.9719 106.171 38.37 106.322 37.4672C106.474 36.7149 106.474 35.9625 106.474 35.2102V29.1914C106.474 28.439 106.474 27.6867 106.322 26.9343C106.171 26.1819 106.019 25.4296 105.716 24.6772H109.351C109.049 25.4296 108.897 26.0315 108.746 26.9343C108.897 27.6867 108.746 28.439 108.746 29.1914Z" fill="black"/>
<path d="M100.718 26.633C100.416 26.4825 99.8097 26.4825 99.0524 26.4825C97.5379 26.4825 96.3262 26.9339 95.266 27.8367C94.3573 28.5891 93.7515 29.7928 93.7515 31.2975H100.567V26.633H100.718ZM103.293 39.5734L100.416 39.7239C100.567 39.2725 100.718 38.821 100.718 38.3696C100.718 37.9182 100.718 37.4668 100.718 37.1659V33.4041H93.9029V35.9621V37.3163C93.9029 38.2192 94.0544 38.9715 94.0544 39.8743H90.8738C91.1767 39.122 91.3282 38.5201 91.4796 37.6173C91.6311 36.8649 91.6311 36.1126 91.6311 35.3602V33.8555V33.1032V31.448C91.6311 29.3414 92.2369 27.6862 93.6 26.4825C94.9631 25.1282 96.6291 24.5264 98.901 24.5264C99.5068 24.5264 99.9612 24.5264 100.416 24.6768C101.173 24.6768 101.93 24.8273 102.687 24.9778V37.3163C102.687 37.6173 102.687 38.0687 102.687 38.5201C102.99 38.6706 103.142 39.122 103.293 39.5734Z" fill="black"/>
<path d="M83.1495 30.9968C84.0583 31.1473 84.8155 31.1473 85.7243 31.1473H87.0874H89.5107V32.3511C89.5107 37.1661 86.0272 39.8746 82.3922 39.8746C78.1515 39.7241 74.8194 36.4138 74.668 32.2006C74.668 27.536 78.9088 23.9247 83.6039 24.5266C85.5728 24.8276 87.0874 25.7304 88.4505 27.0846L87.2388 29.4921C86.1787 27.6865 84.5126 26.4827 82.3922 26.4827C79.3631 26.4827 76.9398 28.8903 76.7884 32.0501C76.7884 35.21 79.3631 37.6175 82.3922 37.6175C85.1185 37.6175 87.0874 35.9624 87.2388 33.1034H86.9359H86.4816C85.8757 33.1034 85.4214 33.1034 84.967 33.1034C84.3612 33.1034 83.6039 33.4044 82.9981 33.7053L83.1495 30.9968Z" fill="black"/>
<path d="M66.4893 30.8465V33.7055C66.0349 33.555 65.5806 33.4045 65.1262 33.4045C64.6718 33.4045 64.3689 33.4045 64.066 33.4045H61.1883V37.6177H64.9747C65.5806 37.6177 66.0349 37.6177 66.3378 37.6177C66.9437 37.6177 67.701 37.3167 68.3068 37.0158V39.7243H58.3107C58.6136 38.9719 58.765 38.37 58.9165 37.4672C59.068 36.7149 59.068 35.9625 59.068 35.2102V29.1914C59.068 28.439 59.068 27.6867 58.9165 26.9343C58.765 26.1819 58.6136 25.4296 58.3107 24.6772H68.3068V27.3857C67.701 27.0848 67.0951 26.9343 66.3378 26.7838C65.8835 26.7838 65.4291 26.7838 64.8233 26.7838H61.1883V31.2979H63.9146C64.2175 31.2979 64.6718 31.2979 65.1262 31.2979C65.8835 31.1475 66.4893 30.8465 66.4893 30.8465Z" fill="black"/>
<path d="M47.4059 37.4672H49.2233C52.101 37.4672 54.3729 35.0597 54.3729 32.0503C54.3729 29.0409 52.101 26.6334 49.2233 26.6334H47.4059V37.4672ZM45.134 37.4672C45.2855 36.7149 45.2855 35.9625 45.2855 35.2102V29.1914C45.2855 28.439 45.2855 27.6867 45.134 26.9343C44.9826 26.1819 44.8311 25.4296 44.5282 24.6772H49.2233C53.3127 24.6772 56.4932 27.9876 56.4932 32.2008C56.4932 36.4139 53.3127 39.7243 49.2233 39.7243H49.0719H44.5282C44.8311 38.8214 44.9826 38.2196 45.134 37.4672Z" fill="black"/>
<path d="M129.798 37.6177C131.918 37.6177 133.584 36.4139 134.645 34.6083L135.856 37.0158C134.493 38.37 132.979 39.2729 131.01 39.5738C126.315 40.1757 122.074 36.5644 122.074 31.8998C122.074 27.2352 126.315 23.624 131.01 24.2258C132.979 24.5268 134.493 25.4296 135.856 26.7838L134.645 29.1914C133.584 27.3857 131.918 26.182 129.798 26.182C126.769 26.182 124.346 28.5895 124.194 31.7494C124.346 35.2102 126.769 37.6177 129.798 37.6177Z" fill="black"/>
</svg>
